<?xml version="1.0" standalone="no"?>
<!DOCTYPE svg PUBLIC "-//W3C//DTD SVG 1.1//EN" "http://www.w3.org/Graphics/SVG/1.1/DTD/svg11.dtd" >
<svg xmlns="http://www.w3.org/2000/svg" xmlns:xlink="http://www.w3.org/1999/xlink" version="1.1">
<metadata></metadata>
<defs>
<font id="krylonregular" horiz-adv-x="614" >
<font-face units-per-em="2048" ascent="1638" descent="-410" />
<missing-glyph horiz-adv-x="450" />
<glyph horiz-adv-x="0" />
<glyph horiz-adv-x="682" />
<glyph unicode=" "  horiz-adv-x="450" />
<glyph unicode="&#x09;" horiz-adv-x="450" />
<glyph unicode="&#xa0;" horiz-adv-x="450" />
<glyph unicode="!" horiz-adv-x="327" d="M82 61l82 82l82 -82l-82 -81zM92 1448l70 23l69 -23l-57 -1223h-25z" />
<glyph unicode="&#x22;" horiz-adv-x="573" d="M82 1372l82 82l82 -82l-72 -164h-10v82zM328 1372l82 82l82 -82l-72 -164h-10v82z" />
<glyph unicode="#" horiz-adv-x="1708" d="M82 492v40h445l146 379l-431 -10v41h443l189 492h41l-200 -492h420l190 492h41l-200 -492h460v-10l-469 -11l-158 -389h453v-10l-461 -10l-209 -512h-10l197 511l-433 -9l-204 -502h-10l193 501zM549 532h428l150 389l-424 -10z" />
<glyph unicode="$" horiz-adv-x="983" d="M51 510h27q85 -392 319 -459l75 676q-4 2 -11.5 6.5t-11.5 6.5q-82 44 -139.5 80.5t-116.5 86.5t-89.5 106.5t-30.5 118.5q0 158 117 248t309 90q17 0 55 -2l19 170l41 -4l-21 -170q171 -22 282 -123l24 -256h-27q-25 120 -101.5 206t-185.5 112l-71 -551q4 -2 11.5 -6 t14 -7t12.5 -6q70 -36 122.5 -66.5t113 -75.5t99.5 -89t65 -100.5t26 -116.5q0 -103 -41 -183t-110.5 -127t-153 -71t-175.5 -24q-52 0 -95 7l-24 -192l-10 2l21 192q-169 30 -308 156zM212 1176q0 -97 71 -168t205 -142l60 544q-24 3 -49 3q-76 0 -139 -24t-105.5 -79 t-42.5 -134zM411 47q39 -10 87 -10q58 0 114 14t107.5 43.5t83.5 83t32 123.5q0 71 -26 132.5t-77 112t-105 88.5t-130 80z" />
<glyph unicode="%" horiz-adv-x="757" d="M82 0l553 1434h41l-584 -1434h-10zM82 1300l41 41l41 -41l-41 -40zM594 102l41 41l41 -41l-41 -41z" />
<glyph unicode="&#x26;" horiz-adv-x="1216" d="M31 430q0 60 17 115t37 94t66 82t71.5 65t88.5 57.5t82.5 45.5t85.5 41q24 12 35 17q-148 -13 -256 65.5t-108 201.5q0 118 101.5 187t274.5 69q110 0 203.5 -36.5t150.5 -88.5l24 -174l-27 -26q-18 133 -118.5 200.5t-254.5 67.5q-97 0 -156 -54.5t-59 -144.5 q0 -74 48 -131t118.5 -79.5t158 3.5t157.5 106l23 -18q-34 -37 -82 -74.5t-85 -60.5t-98 -59q-53 -31 -78.5 -46.5t-71 -47t-69 -54.5t-55 -60t-47 -73t-27 -84t-11.5 -102q0 -175 99.5 -286t256.5 -111q230 0 331.5 191t43.5 516l-508 -547l-21 22l790 921l23 -19 q-31 -36 -53.5 -74.5t-35.5 -81t-21.5 -76t-11.5 -83.5t-4 -78.5t-0.5 -85.5t0.5 -81q-1 -77 -20 -155.5t-61.5 -156t-102.5 -136.5t-150.5 -96t-198.5 -37q-210 0 -352.5 129.5t-142.5 320.5z" />
<glyph unicode="'" horiz-adv-x="245" d="M82 1064v390h82l-62 -390h-20z" />
<glyph unicode="(" horiz-adv-x="473" d="M82 655q0 155 30.5 313.5t100.5 310.5t169 237l8 -10q-117 -99 -192 -356t-75 -495t75 -494.5t192 -355.5l-8 -10q-99 85 -169 236.5t-100.5 310t-30.5 313.5z" />
<glyph unicode=")" horiz-adv-x="473" d="M82 -195q117 99 192 355.5t75 494.5t-75 495t-192 356l8 10q99 -85 169 -237t100.5 -310.5t30.5 -313.5t-30.5 -313.5t-100.5 -310t-169 -236.5z" />
<glyph unicode="*" horiz-adv-x="409" d="M41 1264v12q65 0 98 13q-14 32 -60 78l8 9q50 -50 86 -63q26 31 26 121h12q0 -86 23 -118q30 13 76 59l9 -8q-42 -42 -58 -74q31 -17 108 -17v-12q-84 0 -116 -23q6 -37 66 -97l-9 -9q-53 53 -88 64q-11 -32 -11 -93h-12q0 65 -12 96q-40 -7 -100 -67l-8 9q63 63 67 104 q-32 16 -105 16z" />
<glyph unicode="+" d="M82 712v10l206 14l14 206h10l14 -206l206 -14v-10l-206 -15l-14 -205h-10l-14 206z" />
<glyph unicode="," horiz-adv-x="327" d="M72 61l92 88l92 -88l-81 -178h-11v89z" />
<glyph unicode="-" d="M82 712v10l225 15l225 -15v-10l-225 -16z" />
<glyph unicode="." horiz-adv-x="307" d="M61 72l93 92l92 -92l-92 -92z" />
<glyph unicode="/" horiz-adv-x="757" d="M82 0l553 1434h41l-584 -1434h-10z" />
<glyph unicode="0" horiz-adv-x="1275" d="M82 725q0 125 20 234.5t63.5 204t107.5 162t157 106t208 38.5t208 -38.5t157 -106t107.5 -162t63.5 -204t20 -234.5t-20 -234.5t-63.5 -204t-107.5 -162t-157 -106t-208 -38.5t-208 38.5t-157 106t-107.5 162t-63.5 204t-20 234.5zM221 725q0 -82 9.5 -161t29 -157.5 t53 -144.5t78 -117t108 -79.5t139.5 -28.5t139.5 28.5t108 79.5t78 117t53 144.5t29 157.5t9.5 161q0 99 -13 193t-44.5 185t-78.5 159t-119 109.5t-162 41.5q-76 0 -139.5 -28.5t-108 -79.5t-78 -117t-53 -144.5t-29 -157.5t-9.5 -161z" />
<glyph unicode="1" horiz-adv-x="323" d="M0 1424v26h242v-1450h-140v1414z" />
<glyph unicode="2" horiz-adv-x="923" d="M51 0l468 724q16 24 48 71.5t44 66.5t35 55t31.5 53t22 44.5t18 46t8.5 40.5t3 43q-5 122 -85.5 202.5t-194.5 76.5v27q106 2 196 -37t144 -110t59 -158q5 -96 -34.5 -179.5t-151.5 -253.5q-24 -35 -36 -54l-387 -601l633 -31v-26h-821z" />
<glyph unicode="3" horiz-adv-x="755" d="M0 1423v26h715l-360 -403v-1q103 -24 184 -106t123.5 -192.5t42.5 -227.5q0 -101 -34 -198.5t-93 -173t-146.5 -121.5t-187.5 -46v26q82 5 148.5 57.5t105.5 132t57.5 171.5t10.5 179q-7 78 -17.5 136.5t-35.5 121.5t-62.5 103t-100.5 65.5t-146 24.5v22l383 375z" />
<glyph unicode="4" horiz-adv-x="948" d="M51 492v51l690 907h54v-928l123 -4v-26h-123v-492h-140v492h-604zM143 547l512 -19v721z" />
<glyph unicode="5" horiz-adv-x="983" d="M72 655l45 795h107h520v-26l-503 -30l-32 -526q105 109 267 109q192 0 313 -140t121 -359q0 -215 -132 -356.5t-331 -141.5v26q109 0 188.5 78t112.5 191t23 231q-6 71 -21 133t-42 117t-64 93t-90.5 57t-117.5 13q-94 -9 -161 -79t-75 -185h-128z" />
<glyph unicode="6" horiz-adv-x="1001" d="M72 441q0 94 17.5 189t47 175.5t68 157.5t80.5 140t84.5 118.5t81 96.5t68 71t47.5 45l17 15l16 -17q-9 -10 -25.5 -29t-61 -81t-84 -127.5t-84.5 -164t-72 -195.5q106 72 229 72q183 0 306 -134t123 -333t-123.5 -334t-305.5 -135q-92 0 -173.5 40.5t-136.5 106.5 t-87 150.5t-32 172.5zM211 414q7 -76 30 -144.5t61.5 -126.5t99.5 -89t136 -25q75 7 129 46t82.5 100.5t38.5 135t3 155.5t-30.5 152t-62.5 125t-99 84t-135 22t-129.5 -45.5t-82.5 -100t-38.5 -134.5t-2.5 -155z" />
<glyph unicode="7" horiz-adv-x="942" d="M0 1424v26h864l5 -15q-10 -8 -27.5 -23.5t-67.5 -75t-95.5 -131t-101 -194.5t-95.5 -261.5t-67 -335.5t-27 -414h-139q0 174 19.5 336t50.5 286.5t75.5 238.5t87.5 194t93.5 151.5t86.5 112.5t73 76z" />
<glyph unicode="8" horiz-adv-x="989" d="M41 393q0 155 93.5 259t268.5 142q-141 29 -223 116t-82 210q0 149 113.5 249.5t281.5 100.5t283 -100.5t115 -249.5q0 -123 -83 -210.5t-225 -116.5q176 -38 271 -142t95 -258q0 -98 -37.5 -178t-101.5 -130.5t-145.5 -77.5t-171.5 -27t-171 27t-144 77.5t-100 130 t-37 178.5zM180 366q14 -166 107 -253.5t241 -74.5q147 13 222 114.5t60 268.5q-6 69 -30 130t-65.5 110.5t-107.5 77.5t-147 25q-102 -14 -169.5 -77t-93 -145.5t-17.5 -175.5zM237 1098q3 -38 13.5 -74.5t32 -74t52 -65.5t77.5 -44.5t105 -14.5q62 9 108.5 34t70.5 58 t39.5 72.5t16.5 78.5t0 75q-11 134 -87.5 206.5t-194.5 62.5t-181 -95.5t-52 -218.5z" />
<glyph unicode="9" horiz-adv-x="919" d="M31 981q0 200 123 334.5t306 134.5t306 -134.5t123 -334.5h-8h8q0 -94 -17.5 -188.5t-47 -175t-68 -157.5t-80.5 -140t-84.5 -119t-81 -97t-68 -71t-46.5 -45l-18 -15l-20 15q10 10 26 29t61.5 81.5t85.5 128t85.5 164.5t72.5 196q-106 -72 -229 -72q-183 0 -306 133.5 t-123 332.5zM170 956q7 -82 30.5 -152.5t62.5 -125.5t99 -84t135 -22q99 9 161 74.5t82 157.5t10 203q-7 83 -30 153t-61.5 126t-99 85t-136.5 22q-75 -7 -129 -46t-82.5 -100.5t-38.5 -135t-3 -155.5z" />
<glyph unicode=":" horiz-adv-x="327" d="M82 471l82 82l82 -82l-82 -82zM82 963l82 82l82 -82l-82 -82z" />
<glyph unicode=";" horiz-adv-x="327" d="M82 471l82 82l82 -82l-72 -165h-10v83zM82 963l82 82l82 -82l-82 -82z" />
<glyph unicode="&#x3c;" d="M82 696v41l450 205v-10l-411 -215l411 -215v-10z" />
<glyph unicode="=" d="M82 650v10l227 16l223 -16v-10l-223 -15zM82 773v11l227 15l223 -15v-11l-223 -15z" />
<glyph unicode="&#x3e;" d="M82 492v10l411 215l-411 215v10l450 -205v-41z" />
<glyph unicode="?" horiz-adv-x="919" d="M61 1085l31 260q139 125 370 125q191 0 299 -111t96 -295q-4 -66 -37 -143t-81.5 -147.5t-106.5 -141t-115 -128t-104.5 -102t-76.5 -68.5l-29 -25h-11l-11 11v11q17 17 46.5 47.5t104.5 122t133.5 180t109 207.5t55.5 220q8 156 -58 230.5t-214 74.5q-138 0 -237.5 -91 t-137.5 -237h-26zM378 61l82 82l82 -82l-82 -81z" />
<glyph unicode="@" horiz-adv-x="1658" d="M86 506q27 152 102 286t186.5 233.5t262.5 157.5t319 58q218 0 372 -96.5t219 -268.5t26 -390q-5 -25 -8 -46l-603 -364l-19 -14l22 144q-101 -129 -249 -129q-144 0 -214 118t-37 305q33 186 137 294t251 108q73 0 127 -36.5t82 -103.5l22 125h127l-116 -681l335 236 q10 55 15 108q8 104 -10 200.5t-63 178.5t-111.5 141.5t-163 89.5t-211.5 21q-143 -11 -267 -79t-208 -171.5t-135.5 -230t-61.5 -259.5q-8 -107 3.5 -201t47 -178t93 -145.5t147.5 -99t204 -41.5v-26q-165 -1 -296 54.5t-212 155t-112.5 241t-2.5 305.5zM588 479 q-28 -162 11.5 -258.5t133.5 -96.5q88 0 165 73.5t95 174.5l44 245q17 98 -32 168t-135 70q-109 0 -178.5 -93t-103.5 -283z" />
<glyph unicode="A" horiz-adv-x="1310" d="M0 0v27q104 0 148 127l400 1147q9 25 8.5 45t-6.5 32.5t-18.5 21.5t-23.5 13.5t-26.5 6.5t-22 2.5t-14.5 0.5v27h288l430 -1296q13 -40 35.5 -68t46 -39.5t39 -15.5t26.5 -4v-27h-406v27q110 0 110 75q0 21 -8 47l-149 465h-482l-162 -465q-9 -27 -9 -48q0 -26 14 -43 q26 -31 93 -31v-27h-311zM395 672h443l-212 661z" />
<glyph unicode="B" horiz-adv-x="1110" d="M41 0v27q11 0 19 0.5t25 7t28.5 18.5t20.5 37.5t9 60.5v1147q0 36 -9.5 61.5t-20.5 37.5t-28 18.5t-25 7t-19 0.5v27h569q160 0 258.5 -76.5t98.5 -200.5q0 -90 -52 -154t-148 -95q129 -53 205.5 -173.5t76.5 -269.5q0 -121 -58.5 -231t-165.5 -180t-235 -70h-549z M283 57h307q95 0 169.5 65t112 160.5t37.5 198.5q0 75 -25.5 150t-69.5 135t-108.5 97.5t-136.5 37.5h-286v-844zM283 958h286q64 0 121.5 23.5t97 74t39.5 117.5q0 100 -79 159.5t-179 59.5l-286 1v-435z" />
<glyph unicode="C" horiz-adv-x="1304" d="M61 725q0 123 28.5 235t85 204.5t135 161t184 106.5t226.5 38q267 0 440 -165l43 -242h-26q-20 107 -92.5 188.5t-167.5 121.5t-197 40q-125 0 -226 -58.5t-163.5 -156.5t-96 -219.5t-33.5 -253.5q0 -106 20.5 -205.5t63 -187t103 -153.5t146 -104t186.5 -38 q207 0 332 121t144 352h26l-29 -364q-170 -166 -473 -166q-121 0 -226.5 38t-184 106.5t-135 161t-85 204.5t-28.5 235z" />
<glyph unicode="D" horiz-adv-x="1323" d="M61 0v27q103 0 103 125v1146q0 125 -103 125v27h480q147 0 280.5 -57.5t230 -154.5t153 -231.5t56.5 -281.5t-56.5 -281.5t-153 -231.5t-230 -154.5t-280.5 -57.5h-480zM303 57h238q122 0 231 57.5t184.5 151t120 214t44.5 245.5t-44.5 245.5t-120 214t-184.5 151 t-231 57.5h-238v-1336z" />
<glyph unicode="E" horiz-adv-x="1042" d="M33 0v27q102 0 102 125v1147q0 35 -9 60.5t-20.5 37.5t-28.5 18.5t-25 7t-19 0.5v27h895l45 -242h-27q-5 27 -9.5 46t-17.5 47.5t-29.5 46.5t-45.5 31.5t-66 13.5h-504v-416h443q45 0 72.5 8t38 25t12.5 28.5t2 33.5v3.5v3.5h26v-262h-26q-1 45 -8 59q-22 44 -117 44 h-443v-863h443q41 0 75.5 17t58.5 43t43 66t30.5 78t20.5 86.5t13 84t7 78.5h27l-42 -510h-917z" />
<glyph unicode="F" horiz-adv-x="1052" d="M61 0v27q103 0 103 125v1146q0 125 -103 125v27h896l44 -242h-27q-21 81 -37 111q-42 74 -130 74h-504v-416h442q45 0 72.5 8t38 25t12.5 28.5t2 33.5v3.5v3.5h27v-262h-27q-1 45 -8 59q-22 44 -117 44h-442v-768q0 -43 12.5 -71t32.5 -38t32.5 -13t25.5 -3v-27h-345z " />
<glyph unicode="G" horiz-adv-x="1386" d="M61 725q0 206 79 374.5t232 269.5t353 101q267 0 440 -165l43 -242h-26q-20 107 -92.5 188.5t-168 121.5t-196.5 40q-125 0 -225 -58.5t-162 -156.5t-94.5 -219t-32.5 -254q0 -106 20 -205.5t62 -187t101.5 -153.5t145 -104t185.5 -38q175 0 256.5 82.5t81.5 261.5v139 q0 58 -17.5 78.5t-69.5 25.5l-362 21v27h691v-27q-103 0 -103 -125v-333q-184 -207 -477 -207q-200 0 -353 101t-232 269.5t-79 374.5z" />
<glyph unicode="H" horiz-adv-x="1306" d="M61 0v27q103 0 103 125v1146q0 125 -103 125v27h345v-27q-103 0 -103 -125v-340h701v340q0 125 -103 125v27h344v-27q-102 0 -102 -125v-1146q0 -125 102 -125v-27h-344v27q103 0 103 125v749h-701v-749q0 -125 103 -125v-27h-345z" />
<glyph unicode="I" horiz-adv-x="466" d="M61 0v27q103 0 103 125v1146q0 125 -103 125v27h345v-27q-103 0 -103 -125v-1146q0 -125 103 -125v-27h-345z" />
<glyph unicode="J" horiz-adv-x="423" d="M30 -65q33 15 56.5 40.5t36 53.5t19.5 70t8.5 74.5t1.5 82.5v1042q0 125 -103 125v27h344v-27q-11 0 -19.5 -1t-25.5 -7.5t-28 -18.5t-20 -37.5t-9 -60.5v-1042q0 -59 -2.5 -97.5t-13 -70t-22 -50t-38 -38t-52 -32.5t-72.5 -36q-32 -15 -50 -24z" />
<glyph unicode="K" horiz-adv-x="1230" d="M61 0v27q103 0 103 125v1146q0 43 -12.5 71t-33 38.5t-32 13t-25.5 2.5v27h345v-27q-15 0 -26.5 -2.5t-32 -12.5t-32.5 -37.5t-12 -70.5v-518l542 537q23 25 28.5 46t-3.5 33t-25 18.5t-36 6.5v27h343v-27q-118 0 -235 -116l-331 -329l461 -823q71 -128 183 -128v-27 h-402v27h7q50 1 68 29q8 12 8 28q0 26 -19 63l-411 728l-178 -177v-546q0 -125 103 -125v-27h-345z" />
<glyph unicode="L" horiz-adv-x="1050" d="M61 0v27q103 0 103 125v1146q0 125 -103 125v27h344v-27q-11 0 -19 -0.5t-25.5 -7t-28.5 -18t-20 -36.5t-9 -59v-1245h422q48 0 86.5 21t64 60t43.5 82t29 99.5t16.5 98t9.5 92.5h26l-42 -510h-897z" />
<glyph unicode="M" horiz-adv-x="1585" d="M61 0v27q103 0 103 125v1148q0 35 -9 60t-20.5 36.5t-28.5 18t-25.5 7.5t-19.5 1v27h207l528 -1260l514 1260h214v-27q-11 0 -19 -0.5t-25.5 -7t-29 -18t-20.5 -36.5t-9 -59v-1150q0 -125 103 -125v-27h-344v27q102 0 102 125v1060l-494 -1212h-62l-497 1212v-1060 q0 -125 103 -125v-27h-271z" />
<glyph unicode="N" horiz-adv-x="1298" d="M61 0v27q103 0 103 125v1148q0 35 -9 60t-20.5 36.5t-28.5 18t-25.5 7.5t-19.5 1v27h235l773 -1140v988q0 125 -102 125v27h270v-27q-102 0 -102 -125v-1298h-23l-883 1286v-1134q0 -35 9 -60.5t20.5 -37.5t28.5 -18.5t25.5 -7.5t19.5 -1v-27h-271z" />
<glyph unicode="O" horiz-adv-x="1441" d="M61 725q0 154 46 289.5t129 237t208.5 160t276.5 58.5q121 0 226.5 -38t184 -106.5t135 -161t85 -204.5t28.5 -235t-28.5 -235t-85 -204.5t-135 -161t-184 -106.5t-226.5 -38q-151 0 -276.5 58.5t-208.5 160t-129 237t-46 289.5zM201 681q11 -133 55.5 -252t115.5 -211 q72 -92 178 -142q87 -40 186 -41q22 0 45 2q124 11 220 78t150.5 170t77.5 227q16 84 16 172q0 42 -4 85q-12 133 -56 252t-116 211t-178 142q-87 40 -186 41q-22 0 -45 -2q-124 -11 -220 -78t-150.5 -170t-77.5 -227q-15 -82 -15 -167q0 -45 4 -90z" />
<glyph unicode="P" horiz-adv-x="1030" d="M61 0v27q103 0 103 125v1146q0 125 -103 125v27h533q87 0 163.5 -20t138.5 -60t98 -107.5t36 -154.5q0 -86 -36 -152.5t-98 -106t-138.5 -59.5t-163.5 -20h-291v-618q0 -125 103 -125v-27h-345zM303 827h242q168 0 257 72.5t89 208.5q0 140 -87.5 212.5t-258.5 72.5h-242 v-566z" />
<glyph unicode="Q" horiz-adv-x="1447" d="M61 725q0 154 46.5 289.5t130 236.5t209.5 160t277 59q200 0 352.5 -101t231 -269.5t78.5 -374.5q0 -259 -120.5 -451t-327.5 -261q116 -99 220 -119q27 -5 54 -5q76 0 150 42l12 -27l-48 -22q-71 -34 -147 -34q-42 0 -85 10q-122 28 -236 134q-59 -12 -134 -12 q-151 0 -277 59t-209.5 160t-130 236.5t-46.5 289.5zM201 679q12 -141 60 -265.5t134.5 -219.5t198.5 -133q-9 19 -9 36q0 24 18 45q27 31 72 31q19 0 42 -6q81 -20 170 -108q130 41 218 153t122 256q24 102 24 212q0 45 -4 91q-12 132 -56.5 250.5t-117 210t-179.5 140.5 q-87 41 -186 41q-22 0 -45 -2q-100 -9 -182.5 -54.5t-137.5 -116t-91 -162t-48 -192.5q-7 -58 -7 -118q0 -44 4 -89zM617 101q3 -32 43 -51q14 -7 32 -10q27 -3 52 -3q21 0 41 2q4 1 11.5 1t11.5 1q-97 93 -154 93q-6 0 -11 -1q-28 -5 -26 -32z" />
<glyph unicode="R" horiz-adv-x="1239" d="M61 0v27q11 0 19 0.5t25.5 7t28.5 18.5t20.5 37.5t9.5 60.5v1147q0 125 -103 125v27h613q160 0 258 -76.5t98 -200.5q0 -110 -77 -181t-210 -87q21 -15 39 -36.5t31 -40t26.5 -50.5t21 -50.5t19 -60t15 -57.5t15 -65.5t14.5 -62.5q29 -123 71 -221.5t106.5 -166 t137.5 -67.5v-27q-87 0 -162.5 46t-131 126t-94.5 165t-70 186q-48 157 -91 236.5t-96.5 110.5t-140.5 31q-70 0 -110 -35.5t-40 -99.5v-614q2 -125 103 -125v-27h-345zM303 888q49 70 186 70q216 0 309 51t93 164q0 100 -79 160t-179 60h-330v-505z" />
<glyph unicode="S" horiz-adv-x="1030" d="M51 510h27q51 -233 156.5 -353t263.5 -120q58 0 114 14t107.5 43.5t83.5 83t32 123.5q0 62 -22 118t-55 97.5t-88.5 84.5t-103.5 72t-118 67q-82 44 -139.5 81t-116 86.5t-89 106.5t-30.5 119q0 158 117 247.5t309 89.5q235 0 376 -129l24 -256h-27q-31 144 -131.5 236 t-241.5 92q-76 0 -139 -24t-105.5 -79t-42.5 -134q0 -47 19.5 -89.5t47 -74t77.5 -66t90.5 -57.5t105.5 -56q70 -36 122.5 -66.5t113 -75.5t99.5 -89t65 -100.5t26 -116.5q0 -103 -41 -183t-110.5 -127t-153 -71t-175.5 -24q-233 0 -416 165z" />
<glyph unicode="T" horiz-adv-x="1126" d="M0 1208l44 242h1038l44 -242h-27q-21 81 -37 111q-42 74 -130 74h-205q-53 0 -73.5 -25t-20.5 -90v-1126q0 -125 102 -125v-27h-344v27q102 0 102 125v1126q0 65 -20.5 90t-73.5 25h-205q-44 0 -75 -16.5t-48.5 -46.5t-25.5 -54.5t-16 -57.5q0 -3 -0.5 -5.5t-1.5 -4.5 h-27z" />
<glyph unicode="U" horiz-adv-x="1296" d="M31 1423v27h344v-27q-103 0 -103 -125v-798q0 -176 120.5 -299t293.5 -123q182 0 302 119.5t120 302.5v798q0 125 -102 125v27h270v-27q-103 0 -103 -125v-798q0 -224 -148.5 -372t-371.5 -148q-106 0 -202 41t-166 111t-111 166t-41 202v798q0 125 -102 125z" />
<glyph unicode="V" horiz-adv-x="1310" d="M0 1423v27h256l428 -1333l413 1184q10 28 10 50q0 72 -109 72v27h312v-27q-104 0 -148 -127l-452 -1296h-133l-430 1296q-13 40 -35.5 68t-46 39.5t-39 15.5t-26.5 4z" />
<glyph unicode="W" horiz-adv-x="2011" d="M0 1423v27h367v-27q-49 0 -61 -29q-5 -11 -5 -27q0 -26 13 -66l360 -1080l303 922l-53 153q-44 127 -157 127v27h264l410 -1229l360 1099q7 25 7.5 43.5t-5 29.5t-11.5 17.5t-16.5 9t-15.5 3t-13 0.5v27h264v-27q-111 0 -153 -127l-424 -1296h-60l-364 1047l-343 -1047 h-60l-450 1296q-44 127 -157 127z" />
<glyph unicode="X" horiz-adv-x="1300" d="M0 0v27q99 0 182 98l409 587l-375 582q-83 129 -195 129v27h250l401 -622l331 475q41 59 41 89q0 31 -44 31l-1 27h281v-27q-114 0 -196 -118l-374 -536l414 -643q77 -99 177 -99v-27h-253l-419 654l-354 -507q-43 -62 -43 -92q0 -28 39 -28h1h7v-27h-279z" />
<glyph unicode="Y" horiz-adv-x="1273" d="M0 1423v27h244l419 -718l358 581q31 49 31 76v7q-6 27 -54 27v27h276v-27q-108 0 -188 -129l-388 -627v-515q0 -125 103 -125v-27h-344v27q102 0 102 125v515l-384 650q-73 106 -175 106z" />
<glyph unicode="Z" horiz-adv-x="1019" d="M31 0l754 1393h-536q-37 0 -66 -13.5t-45.5 -31.5t-29 -46.5t-17 -47.5t-9.5 -46h-27l44 242h860l-736 -1393h456q48 0 86.5 21t64 60t43.5 82t29 99.5t16.5 98t9.5 92.5h27l-43 -510h-724h-88h-69z" />
<glyph unicode="[" horiz-adv-x="512" d="M82 -205v1721h348v-11l-307 -30v-1639l307 -31v-10h-348z" />
<glyph unicode="\" horiz-adv-x="757" d="M82 1434h41l553 -1434h-10z" />
<glyph unicode="]" horiz-adv-x="512" d="M82 -195l307 31v1639l-307 30v11h348v-1721h-348v10z" />
<glyph unicode="^" d="M82 1024l204 430h41l205 -430h-41l-184 387l-184 -387h-41z" />
<glyph unicode="_" horiz-adv-x="860" d="M82 -56l348 16l348 -16v-10l-348 -15l-348 15v10z" />
<glyph unicode="`" horiz-adv-x="450" d="M82 1413l41 41l246 -285l-9 -8z" />
<glyph unicode="a" horiz-adv-x="970" d="M51 285q0 198 225 269q108 33 338 49h1l1 1h1h1h1h1h1h1h1h1h1h1h1h2q43 3 64 5l-1 124q-2 271 -229 271q-63 0 -110.5 -24.5t-72 -64t-34.5 -82.5q-7 -31 -7 -61q0 -12 1 -25l-131 22v7q0 44 24 91q26 51 71.5 94.5t114.5 71.5t144 28q167 0 265.5 -89t98.5 -239v-581 q0 -43 12.5 -71t32.5 -38t32.5 -13t25.5 -3v-27h-238v162q-56 -91 -127 -136.5t-168 -45.5q-156 0 -251 84.5t-95 220.5zM190 289q0 -27 5 -56.5t20 -65.5t39 -64t66.5 -47t97.5 -19q75 0 139.5 46t99 111.5t35.5 129.5l1 227q-19 -2 -70.5 -5t-82.5 -5t-81.5 -9.5t-83 -18 t-71 -30t-61 -44.5t-38 -63.5t-15.5 -86.5z" />
<glyph unicode="b" horiz-adv-x="1038" d="M41 0v27q102 0 102 125v1146q0 125 -102 125v27h238v-572q48 87 128 135t177 48q189 0 291 -141t102 -400q0 -248 -106 -394t-287 -146q-96 0 -175 47.5t-130 135.5v-163h-238zM279 358q0 -132 83 -226.5t199 -94.5q127 0 204 132t77 351q0 246 -69.5 365t-211.5 119 q-116 0 -199 -96t-83 -228v-322z" />
<glyph unicode="c" horiz-adv-x="972" d="M61 520q0 238 136.5 389.5t349.5 151.5q191 0 317 -121l33 -178h-26q-23 92 -120.5 167t-203.5 75q-89 0 -157 -40t-107 -109t-58.5 -153.5t-19.5 -181.5q0 -78 11.5 -148t38 -132t65.5 -106.5t97 -70.5t130 -26q145 0 218 78t120 252h27l-22 -275q-134 -112 -343 -112 q-213 0 -349.5 151t-136.5 389z" />
<glyph unicode="d" horiz-adv-x="1038" d="M61 520q0 259 102.5 400t291.5 141q97 0 177 -48t128 -135v420q0 125 -103 125v27h238v-1298q0 -125 102 -125v-27h-237v163q-52 -89 -130.5 -136t-174.5 -47q-181 0 -287.5 146t-106.5 394zM207 520q0 -221 72 -352t198 -131q116 0 199.5 94.5t83.5 226.5v322 q0 132 -83.5 228t-199.5 96q-141 0 -205.5 -117.5t-64.5 -366.5z" />
<glyph unicode="e" horiz-adv-x="966" d="M53 520q0 248 120.5 394.5t320.5 146.5q123 0 219 -70q96 -71 145 -181q47 -106 47 -227v-10h-705q-1 -18 -1 -53q0 -100 16.5 -183.5t52 -152.5t98.5 -108t148 -39q146 0 229.5 84.5t98.5 245.5h27l-22 -275q-135 -112 -333 -112q-204 0 -332.5 149.5t-128.5 390.5z M203 631h555q-10 179 -78.5 276t-185.5 97q-258 0 -291 -373z" />
<glyph unicode="f" horiz-adv-x="612" d="M41 0v27q102 0 102 125v831h-100v57h104q2 209 83 318.5t235 109.5q65 0 126.5 -24.5t102.5 -66.5l-69 -112q-22 69 -70 107.5t-111 38.5q-35 0 -62.5 -13t-45 -31t-29.5 -52.5t-18 -60t-9 -71.5t-3 -70.5v-72.5h249v-57h-247v-831q0 -125 102 -125v-27h-340z" />
<glyph unicode="g" horiz-adv-x="1026" d="M75 66q-3 14 -3 28q0 54 48 96q60 53 180 74l80 14q-114 29 -191 110t-96 194q-7 42 -7 81q0 122 71 220q94 129 270 161q33 11 132 11q4 0 9 -1q106 0 418 -14v-26l-264 -21q69 -43 116 -113.5t62 -155.5q7 -40 7 -77q0 -121 -71 -219q-94 -129 -270 -166l-256 -53 q-54 -11 -77 -43q-15 -22 -15 -48q0 -13 4 -28q4 -17 15.5 -30.5t36 -24.5t58.5 -13h8q32 0 82 12q55 14 123 43q65 28 115 39q30 7 60 7q19 0 38 -3q48 -7 84 -39q5 -4 13 -11t9 -8q5 -5 17 -16t17 -14t15.5 -8t22.5 -4.5t29 4.5l21 -24l-861 -430l-19 27l688 355 q-7 45 -36.5 73.5t-79.5 33.5q-7 1 -14 1q-46 0 -105 -27q-89 -41 -175 -59q-62 -12 -112 -12q-20 0 -38 2q-64 7 -107 33.5t-52 68.5zM242 630q29 -330 244 -330q20 0 42 3q125 16 180 112q45 77 45 197q0 30 -3 63q-15 169 -85 248q-61 69 -168 69q-15 0 -31 -1 q-227 -20 -227 -291q0 -33 3 -70z" />
<glyph unicode="h" horiz-adv-x="1058" d="M41 0v27q102 0 102 125v1146q0 125 -102 125v27h238v-573q52 89 130.5 136.5t174.5 47.5q147 0 244.5 -99.5t97.5 -250.5v-559q0 -125 102 -125v-27h-340v27q103 0 103 125v559q0 137 -61.5 215t-168.5 78q-116 0 -199 -95t-83 -227v-530q0 -125 102 -125v-27h-340z" />
<glyph unicode="i" horiz-adv-x="442" d="M61 0v27q103 0 103 125v737q0 125 -103 125v26h238v-888q0 -125 102 -125v-27h-340zM139 1290l92 93l93 -93l-93 -92z" />
<glyph unicode="j" horiz-adv-x="438" d="M61 -415q28 12 49 31t33.5 45t21 51t12 61.5t4.5 64t1 68.5v975q0 35 -9 60.5t-20 37.5t-28 18.5t-25.5 7.5t-19.5 1v26h238v-1126q0 -71 -5 -114.5t-16.5 -75t-36 -52.5t-57 -39.5t-84.5 -43.5q-30 -14 -47 -22zM160 1290l92 93l92 -93l-92 -92z" />
<glyph unicode="k" horiz-adv-x="1013" d="M41 0v27q102 0 102 125v1146q0 125 -102 125v27h238v-915l379 391q27 32 33.5 52.5t-2 28t-27.5 7.5v26h273v-26q-117 0 -229 -117l-243 -254l374 -540q59 -76 146 -76v-27h-241l-371 547l-92 -97v-298q2 -125 102 -125v-27h-340z" />
<glyph unicode="l" horiz-adv-x="421" d="M41 0v27q102 0 102 125v1146q0 125 -102 125v27h238v-1298q0 -125 102 -125v-27h-340z" />
<glyph unicode="m" horiz-adv-x="1591" d="M62 0v27q102 0 102 125v737q0 125 -102 125v26h237v-162q48 89 115.5 136t148.5 47q101 0 177.5 -53.5t108.5 -147.5h1q42 93 118 147t165 54q134 0 219.5 -90t85.5 -232v-587q0 -125 102 -125v-27h-340v27q103 0 103 125v636q0 100 -53 157.5t-144 57.5 q-95 0 -166.5 -82.5t-71.5 -193.5v-575q0 -125 103 -125v-27h-340v27q102 0 102 125v636q0 101 -51.5 158t-142.5 57q-89 0 -164.5 -99.5t-75.5 -217.5v-534q0 -125 103 -125v-27h-340z" />
<glyph unicode="n" horiz-adv-x="1058" d="M41 0v27q102 0 102 125v737q0 125 -102 125v26h238v-163q52 89 130.5 136.5t174.5 47.5q147 0 244.5 -99.5t97.5 -250.5v-559q0 -125 102 -125v-27h-340v27q103 0 103 125v559q0 137 -61.5 215t-168.5 78q-116 0 -199 -95t-83 -227v-530q0 -125 102 -125v-27h-340z" />
<glyph unicode="o" horiz-adv-x="1073" d="M61 522q0 78 18 154t57 146t93.5 123t134 84.5t173.5 31.5q93 0 172 -31.5t134 -84.5t93.5 -122.5t57 -146t18.5 -154.5q0 -80 -18.5 -157t-57 -147t-93.5 -123t-134 -84t-172 -31q-109 0 -201 47.5t-151 125.5t-91.5 173.5t-32.5 195.5zM202 602q-1 -19 -2 -37 q0 -37 5 -71q6 -68 22.5 -132.5t47 -127t71.5 -107.5t101 -69q48 -20 104 -20q14 0 28 1q65 6 116 31.5t82.5 64t54 88t30.5 103.5q7 54 10 112q1 17 1 35q0 40 -5 77q-6 69 -20 131.5t-43 125.5t-69.5 107t-102.5 69q-48 20 -106 20q-16 0 -33 -2q-65 -6 -116.5 -31.5 t-82.5 -64t-53.5 -88t-29 -104.5t-10.5 -111z" />
<glyph unicode="p" horiz-adv-x="1024" d="M21 -403q12 0 19 0.5t25 7t28.5 18t20 37t9.5 61.5v1168q0 125 -102 125v26h237v-163q52 89 130.5 136.5t174.5 47.5q182 0 290 -147t108 -394q0 -258 -104 -399t-294 -141q-97 0 -177 48t-128 135v-593h-237v27zM258 360q0 -132 83.5 -227.5t199.5 -95.5 q143 0 213.5 119.5t70.5 363.5q0 217 -78 350t-206 133q-116 0 -199.5 -95t-83.5 -226v-322z" />
<glyph unicode="q" horiz-adv-x="1021" d="M61 520q0 247 108 394t290 147q96 0 174.5 -47.5t130.5 -136.5v163h237l1 -26q-103 0 -103 -125v-1168q0 -36 9.5 -61.5t20 -37t28.5 -18t25 -7t19 -0.5v-27h-237v593q-48 -87 -128 -135t-177 -48q-190 0 -294 141t-104 399zM197 520q0 -244 70.5 -363.5t213.5 -119.5 q116 0 199.5 95.5t83.5 227.5v322q0 131 -83.5 226.5t-199.5 95.5q-128 0 -206 -133.5t-78 -350.5z" />
<glyph unicode="r" horiz-adv-x="784" d="M41 0v27q102 0 102 125v737q0 125 -102 125v26h238v-324q15 57 31.5 102.5t41 92t52.5 78t67 51t84 19.5q65 0 127 -24.5t103 -66.5l-70 -112q-22 69 -69.5 107t-110.5 38q-120 0 -188 -228.5t-68 -620.5q0 -125 102 -125v-27h-340z" />
<glyph unicode="s" horiz-adv-x="823" d="M61 366h27q44 -162 125 -245.5t181 -83.5q42 0 80 9t73.5 28t57 56t21.5 87q0 28 -3.5 52.5t-14 46t-19 38t-28.5 34t-31 28t-39 27t-40 23t-46 24.5t-46 24q-18 10 -57 29.5t-59.5 31t-52.5 31.5t-49 38.5t-36 44t-27 56t-8 66.5q0 113 93.5 181.5t231.5 68.5 q74 0 150.5 -26.5t129.5 -74.5l20 -197h-26q-18 92 -96.5 166t-177.5 74q-85 0 -138.5 -39t-53.5 -122q0 -28 5.5 -51.5t18.5 -42t25.5 -31.5t37 -27.5t41.5 -23.5t49.5 -24.5t52.5 -25.5q143 -73 199 -116q129 -98 129 -223q0 -98 -53 -167t-134 -100t-180 -31 q-167 0 -307 127z" />
<glyph unicode="t" horiz-adv-x="698" d="M20 983v57q238 0 238 328h57v-328h323v-57h-323v-720q0 -65 22 -112t55.5 -69t75.5 -27q12 -1 22 -1q30 0 58 9q38 13 70 43.5t46 71.5l15 -23q-20 -63 -66 -105q-46 -44 -101 -60q-36 -11 -74 -10q-20 0 -40 2q-59 8 -107.5 40.5t-79.5 95t-31 145.5v720h-160z" />
<glyph unicode="u" horiz-adv-x="1058" d="M31 1014v26h237v-710q0 -137 61.5 -215t168.5 -78q116 0 199 94.5t83 226.5v531q0 125 -102 125v26h237v-888q0 -125 103 -125v-27h-238v163q-52 -89 -130.5 -136t-174.5 -47q-147 0 -244.5 99.5t-97.5 250.5v559q0 125 -102 125z" />
<glyph unicode="v" horiz-adv-x="1007" d="M0 1014v26h243l288 -854l259 722q11 30 11 52q0 54 -68 54v26h274v-26q-13 0 -26.5 -2.5t-38 -11.5t-46 -34t-35.5 -63l-321 -903h-73l-316 891q-44 123 -151 123z" />
<glyph unicode="w" horiz-adv-x="1505" d="M0 1014v27h343v-27q-48 0 -62 -26q-6 -12 -6 -30q0 -22 9 -53l223 -717l211 638l-22 65q-41 123 -151 123v27h242l264 -853l238 720q10 31 10 53q1 15 -5 27q-14 26 -62 26v27h274v-27q-10 0 -19.5 -1t-29 -6.5t-35.5 -16.5t-33.5 -33t-27.5 -53l-301 -904h-69l-237 716 l-239 -716h-69l-295 891q-41 123 -151 123z" />
<glyph unicode="x" horiz-adv-x="976" d="M0 1014v26h238l258 -418l173 271q36 56 36 87q0 34 -47 34v26h276v-26q-14 0 -28.5 -3t-43.5 -13t-60.5 -38t-59.5 -71l-209 -327l256 -413q76 -122 187 -122v-27h-221l-289 456l-204 -320q-31 -48 -31 -75q0 -34 49 -34v-27h-276v27q113 0 195 129l229 359l-234 370 q-82 129 -194 129z" />
<glyph unicode="y" horiz-adv-x="1013" d="M0 -406l87 104q45 -36 87 -46q19 -4 36 -4q21 0 39 6q33 13 62.5 40.5t52.5 65.5t42.5 80.5t34.5 83t26 74.5q2 7 3 10l-313 883q-44 123 -151 123v26h243l289 -854l258 722q12 32 12 54q0 16 -6 26q-14 26 -63 26v26h274v-26q-106 0 -146 -111l-319 -897 q-24 -66 -41.5 -110t-46.5 -101t-57 -92t-70 -69.5t-89 -47.5q-44 -14 -104 -14h-4q-63 1 -136 22z" />
<glyph unicode="z" horiz-adv-x="794" d="M61 0l498 983h-337q-27 0 -47.5 -8.5t-31 -18.5t-19.5 -29.5t-11.5 -30t-6.5 -32.5h-27l32 176h622l-507 -983h303q34 0 62 12t45.5 34t30 45t19.5 51.5t10 47.5t6 39q1 6 1 9h26l-30 -295h-508h-77h-53z" />
<glyph unicode="{" horiz-adv-x="544" d="M82 612v82h37q17 0 30 12.5t15 29.5q3 31 7.5 89t7.5 96.5t9.5 96t13.5 98.5t19 92.5t26 88t35.5 76t46.5 66t59 47.5t74 30v-12q-37 -9 -67.5 -30.5t-53 -56.5t-40 -72.5t-30.5 -91t-22 -98.5t-16 -108t-10.5 -106.5t-9 -107.5t-8.5 -98q-3 -32 -26.5 -53t-55.5 -24v-9 q34 0 56.5 -21.5t25.5 -55.5q3 -32 8 -98t9 -108t11 -106t16 -108t22 -98.5t30.5 -91.5t40 -72t53 -56.5t67.5 -30.5v-12q-40 9 -74 30t-59 47.5t-46.5 66t-35.5 76t-26 88t-19 92t-13.5 98.5t-9.5 96.5t-7.5 96.5t-7.5 89q-1 17 -14.5 29t-30.5 12h-37z" />
<glyph unicode="|" horiz-adv-x="204" d="M82 614l15 -1024h11l15 1024l-15 1024h-11z" />
<glyph unicode="}" horiz-adv-x="544" d="M82 -197q37 9 67.5 30.5t53 56.5t40 72t30.5 91.5t22 98.5t16 108t11 106t9 108t8 98q3 34 25.5 55.5t56.5 21.5v9q-32 3 -55.5 24t-26.5 53q-3 34 -8.5 98t-9 107.5t-10.5 106.5t-16 108t-22 98.5t-30.5 91t-40 72.5t-53 56.5t-67.5 30.5v12q40 -9 74 -30t59 -47.5 t46.5 -66t35.5 -76t26 -88t19 -92.5t13.5 -98.5t9.5 -96t7.5 -96.5t7.5 -89q2 -17 15 -29.5t30 -12.5h37v-81h-37q-17 0 -30 -12.5t-15 -29.5q-3 -31 -7.5 -89t-7.5 -96.5t-9.5 -96.5t-13.5 -98.5t-19 -92t-26 -88t-35.5 -76t-46.5 -66t-59 -47.5t-74 -30v12z" />
<glyph unicode="~" horiz-adv-x="780" d="M82 684l4 -7q58 40 104 57.5t94 4.5q16 -4 102.5 -43.5t108.5 -44.5q32 -7 66.5 4.5t56 27.5t47.5 39t32 27l-4 7q-58 -40 -104 -57.5t-94 -4.5q-16 4 -102.5 43.5t-108.5 44.5q-32 7 -66.5 -4.5t-56 -27.5t-47.5 -39t-32 -27z" />
<glyph unicode="&#xa1;" horiz-adv-x="327" d="M82 963l82 81l82 -81l-82 -82zM92 -424l57 1223h25l57 -1223l-69 -23z" />
<glyph unicode="&#xa2;" horiz-adv-x="663" d="M77 717q0 142 81.5 232.5t208.5 90.5q12 0 34 -2l31 109h41l-37 -115q70 -17 120 -65l20 -106h-16q-11 42 -48.5 80t-86.5 54l-171 -530q47 -37 113 -37q87 0 130.5 46.5t71.5 150.5h16l-13 -164q-80 -67 -205 -67q-68 0 -127 28l-43 -135h-10l40 142q-70 40 -110 115 t-40 173zM163 717q0 -166 78 -241l150 528q-8 1 -24 1q-103 0 -153.5 -82.5t-50.5 -205.5z" />
<glyph unicode="&#xa3;" horiz-adv-x="1003" d="M74 718v57h162q-17 81 -51 185q-35 105 -20 198t63 162.5t125 109.5t166 40q65 0 122 -14.5t105.5 -44t75 -50t67.5 -57.5l30 -260h-26q-19 72 -53 137t-80.5 117.5t-109 83.5t-131.5 31q-56 0 -105 -23.5t-85.5 -73t-43.5 -126t22 -182.5q39 -131 56 -233h362v-26 l-355 -17q25 -177 -4.5 -328t-116.5 -347h406q46 0 81 13.5t60 49t40.5 63t29 90.5t18.5 93t15 108q1 8 1.5 12.5t1.5 11t2 12.5h26l-42 -510h-798q103 258 126 334q54 174 37 333q-3 29 -8 59z" />
<glyph unicode="&#xa5;" horiz-adv-x="1273" d="M0 1423v27h244l420 -718l357 581q36 57 30.5 83.5t-53.5 26.5v27h276v-27q-108 0 -188 -129l-388 -627v-16h381v-10l-381 -14v-140h381v-10l-381 -13v-312q0 -125 103 -125v-27h-344v27q102 0 102 125v307l-340 -13v41h340v135l-340 -12v41h340v16l-384 650 q-73 106 -175 106z" />
<glyph unicode="&#xa6;" horiz-adv-x="204" d="M82 451l15 -861h11l15 861h-41zM82 778h41l-15 860h-11z" />
<glyph unicode="&#xa7;" horiz-adv-x="757" d="M73 129h23q32 -116 105.5 -186t165.5 -70q87 0 141.5 52t54.5 136q0 46 -15.5 87t-35 68.5t-58.5 59.5t-64.5 48.5t-74.5 46.5q-38 23 -56.5 35t-50 34.5t-48 40.5t-34.5 42.5t-26 52.5t-8 59q0 81 47.5 142.5t115 90t140.5 29.5q-15 8 -42.5 25t-37.5 23 q-46 28 -67.5 42t-57.5 42t-53 51t-31 57t-14 71q0 82 48 143.5t116.5 90t142.5 28.5q65 0 119.5 -21t124.5 -73v-98h-23q-53 74 -102.5 104.5t-118.5 30.5q-82 0 -132 -43.5t-50 -114.5q0 -31 7 -58t24.5 -50.5t33 -40.5t45.5 -37.5t48.5 -32t55.5 -32.5q49 -28 74.5 -44 t65.5 -48t60.5 -61t36.5 -73t16 -94q0 -98 -56 -172.5t-153 -105.5q47 -28 79 -52.5t64.5 -60t49 -81t16.5 -101.5q0 -134 -96 -214.5t-222 -80.5q-48 0 -89.5 10.5t-77.5 32.5t-54 36t-50 42zM217 682q0 -117 83 -181q68 -53 144 -38q79 15 107 95q12 35 12 77 q0 97 -43 151t-121 54q-82 0 -132 -43.5t-50 -114.5z" />
<glyph unicode="&#xa8;" d="M72 1308l92 92l92 -92l-92 -93zM359 1308l92 92l92 -92l-92 -93z" />
<glyph unicode="&#xa9;" horiz-adv-x="1638" d="M74 725q0 154 51.5 289.5t145.5 237t236 160t312 58.5t312 -58.5t236 -160t146 -237t52 -289.5t-52 -289.5t-146 -237t-236 -160t-312 -58.5t-312 58.5t-236 160t-145.5 237t-51.5 289.5zM213 725q0 -132 40.5 -254.5t115 -219.5t191.5 -155.5t259 -58.5t259 58.5 t191.5 155.5t115 219.5t40.5 254.5q0 133 -40.5 255t-115 219.5t-191.5 155.5t-259 58t-259 -58t-191.5 -155.5t-115 -219.5t-40.5 -255zM443 725q0 195 111.5 319t285.5 124q158 0 260 -99l27 -146h-22q-18 75 -98 136.5t-167 61.5q-73 0 -128.5 -32.5t-87.5 -89 t-48 -125.5t-16 -149q0 -81 16 -150t48 -125.5t87.5 -88.5t128.5 -32q119 0 179.5 64t98.5 206h22l-19 -224q-113 -93 -281 -93q-174 0 -285.5 124t-111.5 319z" />
<glyph unicode="&#xab;" horiz-adv-x="931" d="M82 617v10l522 404v-11l-481 -394v-8l481 -390v-11zM328 617v10l522 404v-11l-481 -394v-8l481 -390v-11z" />
<glyph unicode="&#xac;" horiz-adv-x="819" d="M82 829v11h655v-248h-11l-34 199z" />
<glyph unicode="&#xad;" d="M82 712v10l225 15l225 -15v-10l-225 -16z" />
<glyph unicode="&#xae;" horiz-adv-x="901" d="M74 1093q0 167 105 272t272 105q166 0 271 -105t105 -272t-104.5 -271.5t-271.5 -104.5t-272 105t-105 271zM152 1093q0 -139 80.5 -239.5t218.5 -100.5t218.5 100.5t80.5 239.5t-80.5 239.5t-218.5 100.5q-93 0 -162.5 -49.5t-103 -125.5t-33.5 -165zM305 896v7 q29 0 29 36v326q0 35 -29 35v8h174q45 0 73 -22t28 -57q0 -31 -22 -51t-60 -25q15 -11 26 -34t14.5 -36t11.5 -50q12 -55 35.5 -92.5t53.5 -37.5v-7q-85 0 -130 148q-20 66 -38.5 87t-54.5 21q-20 0 -31.5 -10.5t-11.5 -28.5v-174q1 -36 30 -36v-7h-98zM373 1148 q14 20 53 20q61 0 87.5 14.5t26.5 46.5q0 28 -22.5 45t-50.5 17h-94v-143z" />
<glyph unicode="&#xaf;" horiz-adv-x="757" d="M82 1285l20 41h574l-21 -41h-573z" />
<glyph unicode="&#xb0;" horiz-adv-x="593" d="M82 1239q0 89 63 152t152 63t152 -63t63 -152t-63 -152t-152 -63t-152 63t-63 152zM164 1238q0 -55 39 -94t95 -39q55 0 94 39t39 94q0 56 -38.5 94.5t-94.5 38.5t-95 -39t-39 -94z" />
<glyph unicode="&#xb1;" d="M82 435v10l225 16l225 -16v-10l-225 -15zM82 783v11l206 14l14 206h10l14 -206l206 -14v-11l-206 -14l-14 -206h-10l-14 206z" />
<glyph unicode="&#xb4;" horiz-adv-x="450" d="M82 1169l246 285l41 -41l-279 -252z" />
<glyph unicode="&#xb6;" horiz-adv-x="851" d="M82 1223q0 148 107 240.5t253 92.5h41l-15 -1740h-10l-16 1069q-146 0 -253 93.5t-107 244.5zM483 1516v40h287v-10l-164 -17l-15 -1713h-10l-15 1708z" />
<glyph unicode="&#xb7;" horiz-adv-x="491" d="M82 711q95 0 126.5 -31.5t31.5 -126.5h12q0 95 31.5 126.5t126.5 31.5v12q-95 0 -126.5 31.5t-31.5 126.5h-12q0 -95 -31.5 -126.5t-126.5 -31.5v-12z" />
<glyph unicode="&#xb8;" horiz-adv-x="487" d="M82 -245h10q0 -45 38.5 -87t89.5 -42t87.5 37t35.5 92q-1 44 -31 76.5t-84.5 39.5t-130.5 -31l85 162h48l-60 -117q84 35 159 -5t75 -125q0 -77 -50 -120.5t-120 -43.5q-58 0 -105 48.5t-47 115.5z" />
<glyph unicode="&#xbb;" horiz-adv-x="931" d="M82 217v11l481 390v8l-481 394v11l522 -404v-10zM328 217v11l481 390v8l-481 394v11l522 -404v-10z" />
<glyph unicode="&#xbf;" horiz-adv-x="919" d="M62 -40q6 90 65 201t138.5 204.5t159 175t133.5 127.5l55 47l11 -1l10 -10v-11q-17 -17 -46.5 -47.5t-104.5 -122t-133.5 -180t-109 -207.5t-55.5 -220q-8 -156 58.5 -230.5t214.5 -74.5q138 0 237 90.5t137 236.5h26l-30 -260q-138 -124 -370 -124q-191 0 -299.5 111 t-96.5 295zM377 962l82 82l82 -82l-82 -82z" />
<glyph unicode="&#xc0;" horiz-adv-x="1310" d="M0 0v27q104 0 148 127l400 1147q9 25 8.5 45t-6.5 32.5t-18.5 21.5t-23.5 13.5t-26.5 6.5t-22 2.5t-14.5 0.5v27h288l430 -1296q13 -40 35.5 -68t46 -39.5t39 -15.5t26.5 -4v-27h-406v27q141 0 102 122l-149 465h-482l-162 -465q-21 -60 5 -91t94 -31v-27h-312zM395 672 h443l-212 661zM485 1764l41 41l246 -284l-9 -9z" />
<glyph unicode="&#xc1;" horiz-adv-x="1310" d="M0 0v27q104 0 148 127l400 1147q9 25 8.5 45t-6.5 32.5t-18.5 21.5t-23.5 13.5t-26.5 6.5t-22 2.5t-14.5 0.5v27h288l430 -1296q13 -40 35.5 -68t46 -39.5t39 -15.5t26.5 -4v-27h-406v27q141 0 102 122l-149 465h-482l-162 -465q-21 -60 4.5 -91t93.5 -31v-27h-311z M395 672h443l-212 661zM440 1521l246 284l41 -41l-279 -252z" />
<glyph unicode="&#xc2;" horiz-adv-x="1310" d="M0 0v27q104 0 148 127l400 1147q9 25 8.5 45t-6.5 32.5t-18.5 21.5t-23.5 13.5t-26.5 6.5t-22 2.5t-14.5 0.5v27h288l430 -1296q13 -40 35.5 -68t46 -39.5t39 -15.5t26.5 -4v-27h-406v27q141 0 102 122l-149 465h-482l-162 -465q-21 -60 4.5 -91t93.5 -31v-27h-311z M377 1521l246 284h10l246 -284l-8 -9l-239 220h-8l-238 -220zM395 672h443l-212 661z" />
<glyph unicode="&#xc3;" horiz-adv-x="1310" d="M0 0v27q104 0 148 127l400 1147q9 25 8.5 45t-6.5 32.5t-18.5 21.5t-23.5 13.5t-26.5 6.5t-22 2.5t-14.5 0.5v27h288l430 -1296q13 -40 35.5 -68t46 -39.5t39 -15.5t26.5 -4v-27h-406v27q141 0 102 122l-149 465h-482l-162 -465q-21 -60 4.5 -91t93.5 -31v-27h-311z M321 1626q6 4 32 27t47.5 39.5t56 28t66.5 4.5q22 -5 108.5 -45t102.5 -44q48 -13 94 4.5t104 57.5l4 -7q-6 -4 -32 -27t-47.5 -39t-56 -27.5t-66.5 -4.5q-22 5 -108.5 45t-102.5 44q-48 13 -94 -4.5t-104 -57.5zM395 672h443l-212 661z" />
<glyph unicode="&#xc4;" horiz-adv-x="1310" d="M0 0v27q104 0 148 127l400 1147q9 25 8.5 45t-6.5 32.5t-18.5 21.5t-23.5 13.5t-26.5 6.5t-22 2.5t-14.5 0.5v27h288l430 -1296q13 -40 35.5 -68t46 -39.5t39 -15.5t26.5 -4v-27h-406v27q141 0 102 122l-149 465h-482l-162 -465q-21 -60 4.5 -91t93.5 -31v-27h-311z M392 1659l93 92l92 -92l-92 -92zM395 672h443l-212 661zM680 1659l92 92l92 -92l-92 -92z" />
<glyph unicode="&#xc5;" horiz-adv-x="1310" d="M0 0v27q104 0 148 127l400 1147q9 25 8.5 45t-6.5 32.5t-18.5 21.5t-23.5 13.5t-26.5 6.5t-22 2.5t-14.5 0.5v27h288l430 -1296q13 -40 35.5 -68t46 -39.5t39 -15.5t26.5 -4v-27h-406v27q141 0 102 122l-149 465h-482l-162 -465q-21 -60 4.5 -91t93.5 -31v-27h-311z M395 672h443l-212 661zM526 1659q0 43 29.5 72.5t72.5 29.5t73 -29.5t30 -72.5t-30 -73t-73 -30t-72.5 30t-29.5 73zM567 1659q0 -26 17.5 -44t43.5 -18t44 18t18 44t-18 43.5t-44 17.5t-43.5 -17.5t-17.5 -43.5z" />
<glyph unicode="&#xc6;" horiz-adv-x="1890" d="M0 0l5 27q14 0 29 3t44 14t60 41.5t57 75.5l651 1147q10 19 17 34.5t10.5 26.5t3.5 20t-1 14.5t-5.5 9.5t-7.5 6t-9.5 3t-9.5 1h-9.5h-7.5v27h948l44 -242h-26q-5 27 -9.5 46t-17.5 47.5t-29.5 46.5t-45.5 31.5t-66 13.5h-504v-416h442q45 0 72.5 8t38 25t12.5 28.5 t2 33.5v3.5v3.5h27v-262h-27q-1 45 -8 59q-22 44 -117 44h-442v-863h442q48 0 86.5 21t64 60t43.5 82t29 99.5t16.5 98t9.5 92.5h27l-43 -510h-917v27q103 0 103 125v462h-448l-273 -472q-36 -63 -22 -89t82 -26l-6 -27h-315zM568 672h414v716z" />
<glyph unicode="&#xc7;" horiz-adv-x="1304" d="M61 725q0 123 28.5 235t85 204.5t135 161t184 106.5t226.5 38q267 0 440 -165l43 -242h-26q-20 107 -92.5 188.5t-167.5 121.5t-197 40q-125 0 -226 -58.5t-163.5 -156.5t-96 -219.5t-33.5 -253.5q0 -106 20.5 -205.5t63 -187t103 -153.5t146 -104t186.5 -38 q207 0 332 121t144 352h26l-29 -364q-170 -166 -473 -166h-26l-49 -95q84 35 159 -5.5t75 -125.5q0 -77 -50 -120.5t-120 -43.5q-58 0 -105 48.5t-47 115.5h10q0 -45 38.5 -87t89.5 -42t87.5 37t35.5 92q-1 44 -31 77t-84.5 40t-130.5 -31l75 143q-135 14 -246.5 77.5 t-185 163t-114 228.5t-40.5 273z" />
<glyph unicode="&#xc8;" horiz-adv-x="1071" d="M61 0v27q103 0 103 125v1147q0 35 -9.5 60.5t-20.5 37.5t-28.5 18.5t-25.5 7t-19 0.5v27h896l44 -242h-26q-5 27 -9.5 46t-17.5 47.5t-29.5 46.5t-45.5 31.5t-66 13.5h-504v-416h442q45 0 72.5 8t38 25t12.5 28.5t2 33.5v3.5v3.5h27v-262h-27q-1 45 -8 59q-22 44 -117 44 h-442v-863h442q48 0 86.5 21t64 60t43.5 82t29 99.5t16.5 98t9.5 92.5h27l-43 -510h-917zM398 1764l41 41l245 -284l-8 -9z" />
<glyph unicode="&#xc9;" horiz-adv-x="1071" d="M61 0v27q103 0 103 125v1147q0 35 -9.5 60.5t-20.5 37.5t-28.5 18.5t-25.5 7t-19 0.5v27h896l44 -242h-26q-5 27 -9.5 46t-17.5 47.5t-29.5 46.5t-45.5 31.5t-66 13.5h-504v-416h442q45 0 72.5 8t38 25t12.5 28.5t2 33.5v3.5v3.5h27v-262h-27q-1 45 -8 59q-22 44 -117 44 h-442v-863h442q48 0 86.5 21t64 60t43.5 82t29 99.5t16.5 98t9.5 92.5h27l-43 -510h-917zM398 1521l245 284l41 -41l-278 -252z" />
<glyph unicode="&#xca;" horiz-adv-x="1071" d="M61 0v27q103 0 103 125v1147q0 35 -9.5 60.5t-20.5 37.5t-28.5 18.5t-25.5 7t-19 0.5v27h896l44 -242h-26q-5 27 -9.5 46t-17.5 47.5t-29.5 46.5t-45.5 31.5t-66 13.5h-504v-416h442q45 0 72.5 8t38 25t12.5 28.5t2 33.5v3.5v3.5h27v-262h-27q-1 45 -8 59q-22 44 -117 44 h-442v-863h442q48 0 86.5 21t64 60t43.5 82t29 99.5t16.5 98t9.5 92.5h27l-43 -510h-917zM290 1521l246 284h10l246 -284l-8 -9l-239 220h-8l-239 -220z" />
<glyph unicode="&#xcb;" horiz-adv-x="1071" d="M61 0v27q103 0 103 125v1147q0 35 -9.5 60.5t-20.5 37.5t-28.5 18.5t-25.5 7t-19 0.5v27h896l44 -242h-26q-5 27 -9.5 46t-17.5 47.5t-29.5 46.5t-45.5 31.5t-66 13.5h-504v-416h442q45 0 72.5 8t38 25t12.5 28.5t2 33.5v3.5v3.5h27v-262h-27q-1 45 -8 59q-22 44 -117 44 h-442v-863h442q48 0 86.5 21t64 60t43.5 82t29 99.5t16.5 98t9.5 92.5h27l-43 -510h-917zM305 1659l92 92l93 -92l-93 -92zM593 1659l92 92l92 -92l-92 -92z" />
<glyph unicode="&#xcc;" horiz-adv-x="466" d="M61 0v27q103 0 103 125v1146q0 125 -103 125v27h345v-27q-103 0 -103 -125v-1146q0 -125 103 -125v-27h-345zM90 1764l41 41l246 -284l-8 -9z" />
<glyph unicode="&#xcd;" horiz-adv-x="466" d="M61 0v27q103 0 103 125v1146q0 125 -103 125v27h345v-27q-103 0 -103 -125v-1146q0 -125 103 -125v-27h-345zM90 1521l246 284l41 -41l-279 -252z" />
<glyph unicode="&#xce;" horiz-adv-x="624" d="M61 1521l246 284h10l246 -284l-8 -9l-239 220h-8l-238 -220zM140 0v27q103 0 103 125v1146q0 125 -103 125v27h344v-27q-102 0 -102 -125v-1146q0 -125 102 -125v-27h-344z" />
<glyph unicode="&#xcf;" horiz-adv-x="593" d="M61 1659l93 92l92 -92l-92 -92zM125 0v27q103 0 103 125v1146q0 125 -103 125v27h344v-27q-102 0 -102 -125v-1146q0 -125 102 -125v-27h-344zM349 1659l92 92l92 -92l-92 -92z" />
<glyph unicode="&#xd0;" horiz-adv-x="1323" d="M61 0v27q103 0 103 125v549l-103 -5v41h103v561q0 125 -103 125v27h480q147 0 280.5 -57.5t230 -154.5t153 -231.5t56.5 -281.5t-56.5 -281.5t-153 -231.5t-230 -154.5t-280.5 -57.5h-480zM303 57h238q122 0 231 57.5t184.5 151t120 214t44.5 245.5t-44.5 245.5t-120 214 t-184.5 151t-231 57.5h-238v-656h475v-10l-475 -20v-650z" />
<glyph unicode="&#xd1;" horiz-adv-x="1298" d="M61 0v27q103 0 103 125v1148q0 35 -9 60t-20.5 36.5t-28.5 18t-25.5 7.5t-19.5 1v27h235l773 -1140v988q0 125 -102 125v27h270v-27q-102 0 -102 -125v-1298h-23l-883 1286v-1134q0 -35 9 -60.5t20.5 -37.5t28.5 -18.5t25.5 -7.5t19.5 -1v-27h-271zM341 1626q6 4 32 27 t48 39.5t56.5 28t66.5 4.5q22 -5 108 -45t102 -44q48 -13 94 4.5t104 57.5l5 -7q-6 -4 -32 -27t-48 -39t-56.5 -27.5t-66.5 -4.5q-22 5 -108 45t-102 44q-48 13 -94 -4.5t-104 -57.5z" />
<glyph unicode="&#xd2;" horiz-adv-x="1441" d="M61 725q0 154 46 289.5t129 237t208.5 160t276.5 58.5q121 0 226.5 -38t184 -106.5t135 -161t85 -204.5t28.5 -235t-28.5 -235t-85 -204.5t-135 -161t-184 -106.5t-226.5 -38q-151 0 -276.5 58.5t-208.5 160t-129 237t-46 289.5zM201 681q11 -133 55.5 -252t116 -211.5 t177.5 -142t231 -38.5q124 11 220 78t150.5 170t77.5 227.5t12 256.5q-12 133 -56 252t-116 211.5t-178 142t-231 38.5q-124 -11 -220 -78t-150.5 -170t-77.5 -227.5t-11 -256.5zM578 1764l40 41l246 -284l-8 -9z" />
<glyph unicode="&#xd3;" horiz-adv-x="1441" d="M61 725q0 154 46 289.5t129 237t208.5 160t276.5 58.5q121 0 226.5 -38t184 -106.5t135 -161t85 -204.5t28.5 -235t-28.5 -235t-85 -204.5t-135 -161t-184 -106.5t-226.5 -38q-151 0 -276.5 58.5t-208.5 160t-129 237t-46 289.5zM201 681q11 -133 55.5 -252t116 -211.5 t177.5 -142t231 -38.5q124 11 220 78t150.5 170t77.5 227.5t12 256.5q-12 133 -56 252t-116 211.5t-178 142t-231 38.5q-124 -11 -220 -78t-150.5 -170t-77.5 -227.5t-11 -256.5zM578 1521l245 284l41 -41l-278 -252z" />
<glyph unicode="&#xd4;" horiz-adv-x="1441" d="M61 725q0 154 46 289.5t129 237t208.5 160t276.5 58.5q121 0 226.5 -38t184 -106.5t135 -161t85 -204.5t28.5 -235t-28.5 -235t-85 -204.5t-135 -161t-184 -106.5t-226.5 -38q-151 0 -276.5 58.5t-208.5 160t-129 237t-46 289.5zM201 681q11 -133 55.5 -252t116 -211.5 t177.5 -142t231 -38.5q124 11 220 78t150.5 170t77.5 227.5t12 256.5q-12 133 -56 252t-116 211.5t-178 142t-231 38.5q-124 -11 -220 -78t-150.5 -170t-77.5 -227.5t-11 -256.5zM470 1521l246 284h10l246 -284l-8 -9l-239 220h-8l-239 -220z" />
<glyph unicode="&#xd5;" horiz-adv-x="1441" d="M61 725q0 154 46 289.5t129 237t208.5 160t276.5 58.5q121 0 226.5 -38t184 -106.5t135 -161t85 -204.5t28.5 -235t-28.5 -235t-85 -204.5t-135 -161t-184 -106.5t-226.5 -38q-151 0 -276.5 58.5t-208.5 160t-129 237t-46 289.5zM201 681q11 -133 55.5 -252t116 -211.5 t177.5 -142t231 -38.5q124 11 220 78t150.5 170t77.5 227.5t12 256.5q-12 133 -56 252t-116 211.5t-178 142t-231 38.5q-124 -11 -220 -78t-150.5 -170t-77.5 -227.5t-11 -256.5zM413 1627l5 -7q58 40 104 57.5t94 4.5q16 -4 102 -44t108 -45q32 -7 66.5 4.5t56.5 27.5 t48 39t32 27l-5 7q-58 -40 -104 -57.5t-94 -4.5q-16 4 -102 44t-108 45q-32 7 -66.5 -4.5t-56.5 -27.5t-48 -39t-32 -27z" />
<glyph unicode="&#xd6;" horiz-adv-x="1441" d="M61 725q0 154 46 289.5t129 237t208.5 160t276.5 58.5q121 0 226.5 -38t184 -106.5t135 -161t85 -204.5t28.5 -235t-28.5 -235t-85 -204.5t-135 -161t-184 -106.5t-226.5 -38q-151 0 -276.5 58.5t-208.5 160t-129 237t-46 289.5zM201 681q11 -133 55.5 -252t116 -211.5 t177.5 -142t231 -38.5q124 11 220 78t150.5 170t77.5 227.5t12 256.5q-12 133 -56 252t-116 211.5t-178 142t-231 38.5q-124 -11 -220 -78t-150.5 -170t-77.5 -227.5t-11 -256.5zM485 1659l92 92l92 -92l-92 -92zM772 1659l92 92l93 -92l-93 -92z" />
<glyph unicode="&#xd7;" horiz-adv-x="489" d="M82 561l136 156l-136 155l7 8l156 -136l155 136l8 -8l-136 -155l136 -156l-8 -7l-155 136l-156 -136z" />
<glyph unicode="&#xd8;" horiz-adv-x="1441" d="M61 725q0 154 46 289.5t129 237t208.5 160t276.5 58.5q135 0 248 -46l86 223l35 -15l-89 -222q179 -85 279 -269t100 -416q0 -123 -28.5 -235t-85 -204.5t-135 -161t-184 -106.5t-226.5 -38q-145 0 -269 55l-92 -232l-8 5l89 232q-179 85 -279.5 269t-100.5 416zM201 681 q16 -175 86 -324.5t185 -234.5l468 1226q-126 78 -280 65q-124 -11 -220 -78t-150.5 -170t-77.5 -227.5t-11 -256.5zM484 113q132 -90 298 -76q124 11 220 78t150 170t77 227.5t12 256.5q-15 176 -86 325.5t-186 234.5z" />
<glyph unicode="&#xd9;" horiz-adv-x="1296" d="M31 1423v27h344v-27q-103 0 -103 -125v-798q0 -176 120.5 -299t293.5 -123q182 0 302 119.5t120 302.5v798q0 125 -102 125v27h270v-27q-103 0 -103 -125v-798q0 -224 -148.5 -372t-371.5 -148q-106 0 -202 41t-166 111t-111 166t-41 202v798q0 125 -102 125zM567 1764 l41 41l246 -284l-8 -9z" />
<glyph unicode="&#xda;" horiz-adv-x="1296" d="M31 1423v27h344v-27q-103 0 -103 -125v-798q0 -176 120.5 -299t293.5 -123q182 0 302 119.5t120 302.5v798q0 125 -102 125v27h270v-27q-103 0 -103 -125v-798q0 -224 -148.5 -372t-371.5 -148q-106 0 -202 41t-166 111t-111 166t-41 202v798q0 125 -102 125zM547 1521 l246 284l41 -41l-279 -252z" />
<glyph unicode="&#xdb;" horiz-adv-x="1296" d="M31 1423v27h344v-27q-103 0 -103 -125v-798q0 -176 120.5 -299t293.5 -123q182 0 302 119.5t120 302.5v798q0 125 -102 125v27h270v-27q-103 0 -103 -125v-798q0 -224 -148.5 -372t-371.5 -148q-106 0 -202 41t-166 111t-111 166t-41 202v798q0 125 -102 125zM439 1500 l246 285h10l246 -285l-8 -8l-239 219h-8l-239 -219z" />
<glyph unicode="&#xdc;" horiz-adv-x="1296" d="M31 1423v27h344v-27q-103 0 -103 -125v-798q0 -176 120.5 -299t293.5 -123q182 0 302 119.5t120 302.5v798q0 125 -102 125v27h270v-27q-103 0 -103 -125v-798q0 -224 -148.5 -372t-371.5 -148q-106 0 -202 41t-166 111t-111 166t-41 202v798q0 125 -102 125zM454 1638 l92 93l93 -93l-93 -92zM742 1638l92 93l92 -93l-92 -92z" />
<glyph unicode="&#xdd;" horiz-adv-x="1273" d="M0 1423v27h244l419 -718l358 581q36 57 30.5 83.5t-53.5 26.5v27h276v-27q-108 0 -188 -129l-388 -627v-515q0 -125 103 -125v-27h-344v27q102 0 102 125v515l-384 650q-73 106 -175 106zM485 1521l246 284l41 -41l-278 -252z" />
<glyph unicode="&#xde;" horiz-adv-x="970" d="M61 0v27q103 0 103 125v1147q0 125 -103 125v26h345v-26q-103 0 -103 -125v-234h231q87 0 163.5 -20t139 -60t98.5 -107.5t36 -154.5q0 -69 -24 -126t-65 -95.5t-97 -65.5t-119 -39t-132 -12h-231v-233q0 -125 103 -125v-27h-345zM303 443h182q169 0 257.5 72t88.5 208 q0 140 -87.5 212.5t-258.5 72.5h-182v-565z" />
<glyph unicode="&#xdf;" horiz-adv-x="1030" d="M41 0v27q102 0 102 125l4 857v31q2 209 83 318.5t235 109.5q65 0 126.5 -24.5t102.5 -66.5l-69 -112q-22 69 -70 107.5t-111 38.5q-35 0 -62.5 -13t-45 -31t-29.5 -52.5t-18 -60t-9 -71.5t-3 -70.5v-72.5h692l-360 -403q103 -24 184 -106t123.5 -192.5t42.5 -227.5 q0 -102 -34 -199t-93 -172.5t-146.5 -122t-187.5 -46.5v26q81 5 148 58t106 132t57.5 171.5t10.5 179.5q-5 55 -11.5 98t-19 92t-29.5 85.5t-44.5 71t-63 56.5t-85 35t-109.5 12v22l383 375l-564 20l2 -853q0 -125 102 -125v-27h-340z" />
<glyph unicode="&#xe0;" horiz-adv-x="970" d="M51 285q0 198 225 269q108 33 338 49h1l1 1h1h1h1h1h1h1h1h1h1h1h1h2q43 3 64 5l-1 124q-2 271 -229 271q-63 0 -110.5 -24.5t-72 -64t-34.5 -82.5t-6 -86l-131 22q-2 47 24 98t71.5 94.5t114.5 71.5t144 28q167 0 265.5 -89t98.5 -239v-581q0 -43 12.5 -71t32.5 -38 t32.5 -13t25.5 -3v-27h-238v162q-56 -91 -127 -136.5t-168 -45.5q-156 0 -251 84.5t-95 220.5zM190 289q0 -27 5 -56.5t20 -65.5t39 -64t66.5 -47t97.5 -19q75 0 139.5 46t99 111.5t35.5 129.5l1 227q-19 -2 -70.5 -5t-82.5 -5t-81.5 -9.5t-83 -18t-71 -30t-61 -44.5 t-38 -63.5t-15.5 -86.5zM347 1413l41 41l246 -285l-8 -8z" />
<glyph unicode="&#xe1;" horiz-adv-x="970" d="M51 285q0 198 225 269q108 33 338 49h1l1 1h1h1h1h1h1h1h1h1h1h1h1h2q43 3 64 5l-1 124q-2 271 -229 271q-63 0 -110.5 -24.5t-72 -64t-34.5 -82.5t-6 -86l-131 22q-2 47 24 98t71.5 94.5t114.5 71.5t144 28q167 0 265.5 -89t98.5 -239v-581q0 -43 12.5 -71t32.5 -38 t32.5 -13t25.5 -3v-27h-238v162q-56 -91 -127 -136.5t-168 -45.5q-156 0 -251 84.5t-95 220.5zM190 289q0 -27 5 -56.5t20 -65.5t39 -64t66.5 -47t97.5 -19q75 0 139.5 46t99 111.5t35.5 129.5l1 227q-19 -2 -70.5 -5t-82.5 -5t-81.5 -9.5t-83 -18t-71 -30t-61 -44.5 t-38 -63.5t-15.5 -86.5zM347 1169l246 285l41 -41l-279 -252z" />
<glyph unicode="&#xe2;" horiz-adv-x="970" d="M51 285q0 198 225 269q108 33 338 49h1l1 1h1h1h1h1h1h1h1h1h1h1h1h2q43 3 64 5l-1 124q-2 271 -229 271q-63 0 -110.5 -24.5t-72 -64t-34.5 -82.5t-6 -86l-131 22q-2 47 24 98t71.5 94.5t114.5 71.5t144 28q167 0 265.5 -89t98.5 -239v-581q0 -43 12.5 -71t32.5 -38 t32.5 -13t25.5 -3v-27h-238v162q-56 -91 -127 -136.5t-168 -45.5q-156 0 -251 84.5t-95 220.5zM190 289q0 -27 5 -56.5t20 -65.5t39 -64t66.5 -47t97.5 -19q75 0 139.5 46t99 111.5t35.5 129.5l1 227q-19 -2 -70.5 -5t-82.5 -5t-81.5 -9.5t-83 -18t-71 -30t-61 -44.5 t-38 -63.5t-15.5 -86.5zM240 1169l245 285h11l245 -285l-8 -8l-238 220h-9l-238 -220z" />
<glyph unicode="&#xe3;" horiz-adv-x="970" d="M51 285q0 198 225 269q108 33 338 49h1l1 1h1h1h1h1h1h1h1h1h1h1h1h2q43 3 64 5l-1 124q-2 270 -229 270q-63 0 -110.5 -24.5t-72 -63.5t-34.5 -82t-6 -86l-131 22q-2 47 24 98t71.5 94.5t114.5 71.5t144 28q167 0 265.5 -89t98.5 -239v-581q0 -43 12.5 -71t32.5 -38 t32.5 -13t25.5 -3v-27h-238v162q-56 -91 -127 -136.5t-168 -45.5q-156 0 -251 84.5t-95 220.5zM183 1273q6 4 32 27t47.5 39t56 27.5t66.5 4.5q22 -5 108.5 -44.5t102.5 -43.5q48 -13 94 4.5t104 57.5l4 -7q-6 -4 -32 -27t-47.5 -39t-56 -27.5t-66.5 -4.5q-22 5 -108.5 44.5 t-102.5 43.5q-48 13 -94 -4.5t-104 -57.5zM190 289q0 -27 5 -56.5t20 -65.5t39 -64t66.5 -47t97.5 -19q75 0 139.5 46t99 111.5t35.5 129.5l1 227q-19 -2 -70.5 -5t-82.5 -5t-81.5 -9.5t-83 -18t-71 -30t-61 -44.5t-38 -63.5t-15.5 -86.5z" />
<glyph unicode="&#xe4;" horiz-adv-x="970" d="M51 285q0 198 225 269q108 33 338 49h1l1 1h1h1h1h1h1h1h1h1h1h1h1h2q43 3 64 5l-1 124q-2 271 -229 271q-63 0 -110.5 -24.5t-72 -64t-34.5 -82.5t-6 -86l-131 22q-2 47 24 98t71.5 94.5t114.5 71.5t144 28q167 0 265.5 -89t98.5 -239v-581q0 -43 12.5 -71t32.5 -38 t32.5 -13t25.5 -3v-27h-238v162q-56 -91 -127 -136.5t-168 -45.5q-156 0 -251 84.5t-95 220.5zM190 289q0 -27 5 -56.5t20 -65.5t39 -64t66.5 -47t97.5 -19q75 0 139.5 46t99 111.5t35.5 129.5l1 227q-19 -2 -70.5 -5t-82.5 -5t-81.5 -9.5t-83 -18t-71 -30t-61 -44.5 t-38 -63.5t-15.5 -86.5zM255 1308l92 92l92 -92l-92 -93zM542 1308l92 92l92 -92l-92 -93z" />
<glyph unicode="&#xe5;" horiz-adv-x="970" d="M51 285q0 198 225 269q108 33 338 49h1l1 1h1h1h1h1h1h1h1h1h1h1h1h2q43 3 64 5l-1 124q-2 271 -229 271q-63 0 -110.5 -24.5t-72 -64t-34.5 -82.5t-6 -86l-131 22q-2 47 24 98t71.5 94.5t114.5 71.5t144 28q167 0 265.5 -89t98.5 -239v-581q0 -43 12.5 -71t32.5 -38 t32.5 -13t25.5 -3v-27h-238v162q-56 -91 -127 -136.5t-168 -45.5q-156 0 -251 84.5t-95 220.5zM190 289q0 -27 5 -56.5t20 -65.5t39 -64t66.5 -47t97.5 -19q75 0 139.5 46t99 111.5t35.5 129.5l1 227q-19 -2 -70.5 -5t-82.5 -5t-81.5 -9.5t-83 -18t-71 -30t-61 -44.5 t-38 -63.5t-15.5 -86.5zM388 1307q0 43 29.5 73t72.5 30t73 -30t30 -73t-30 -72.5t-73 -29.5t-72.5 29.5t-29.5 72.5zM429 1307q0 -26 17.5 -43.5t43.5 -17.5t44 17.5t18 43.5t-18 44t-44 18t-43.5 -18t-17.5 -44z" />
<glyph unicode="&#xe6;" horiz-adv-x="1605" d="M51 285q0 82 33 143.5t88.5 99.5t139.5 61t175 32t206 9l-1 103q-2 126 -56.5 198.5t-174.5 72.5q-84 0 -144 -42.5t-81.5 -100.5t-9.5 -114l-117 22q-2 47 24 98t71 94.5t113.5 71.5t143.5 28q118 0 204 -45.5t128 -128.5q121 174 340 174q93 0 172 -41t131 -109 t81 -156t28 -182h-706q-1 -18 -1 -53q0 -100 16.5 -183.5t52.5 -152.5t99 -108t148 -39q146 0 229.5 84.5t98.5 245.5h27l-22 -275q-135 -112 -333 -112q-132 0 -235.5 65.5t-161.5 182.5q-46 -116 -145 -182t-217 -66q-144 0 -244 86t-100 219zM190 289q0 -53 23.5 -109 t77.5 -99.5t125 -43.5q84 0 149 51.5t95.5 120.5t31.5 135l1 228q-92 0 -160 -5.5t-136 -23.5t-111 -48t-69.5 -82t-26.5 -124zM843 631h555q-11 179 -79.5 276t-185.5 97q-257 0 -290 -373z" />
<glyph unicode="&#xe7;" horiz-adv-x="972" d="M61 520q0 238 136.5 389.5t349.5 151.5q191 0 317 -121l33 -178h-26q-23 92 -120.5 166.5t-203.5 74.5q-72 0 -130 -26.5t-97 -71.5t-65.5 -107t-38 -131.5t-11.5 -146.5q0 -78 11.5 -148t38 -132t65.5 -106.5t97 -70.5t130 -26q145 0 218.5 78t120.5 252h26l-22 -275 q-134 -112 -343 -112q-29 0 -43 1l-50 -96q84 35 159.5 -5t75.5 -125q0 -77 -50 -120.5t-120 -43.5q-59 0 -106 48.5t-47 115.5h10q0 -45 38.5 -87t89.5 -42t87.5 37t35.5 92q-1 44 -31 76.5t-84.5 39.5t-130.5 -31l77 147q-178 32 -287.5 177t-109.5 356z" />
<glyph unicode="&#xe8;" horiz-adv-x="974" d="M61 520q0 248 120.5 394.5t320.5 146.5q123 0 219 -70t145 -180.5t47 -237.5h-705q-1 -18 -1 -53q0 -100 16.5 -183.5t52 -152.5t98.5 -108t148 -39q146 0 230 84.5t99 245.5h26l-22 -275q-135 -112 -333 -112q-204 0 -332.5 149.5t-128.5 390.5zM211 631h555 q-10 179 -78.5 276t-185.5 97q-258 0 -291 -373zM365 1413l41 41l245 -285l-8 -8z" />
<glyph unicode="&#xe9;" horiz-adv-x="974" d="M61 520q0 248 120.5 394.5t320.5 146.5q123 0 219 -70t145 -180.5t47 -237.5h-705q-1 -18 -1 -53q0 -100 16.5 -183.5t52 -152.5t98.5 -108t148 -39q146 0 230 84.5t99 245.5h26l-22 -275q-135 -112 -333 -112q-204 0 -332.5 149.5t-128.5 390.5zM211 631h555 q-10 179 -78.5 276t-185.5 97q-258 0 -291 -373zM365 1169l245 285l41 -41l-278 -252z" />
<glyph unicode="&#xea;" horiz-adv-x="974" d="M61 520q0 248 120.5 394.5t320.5 146.5q123 0 219 -70t145 -180.5t47 -237.5h-705q-1 -18 -1 -53q0 -100 16.5 -183.5t52 -152.5t98.5 -108t148 -39q146 0 230 84.5t99 245.5h26l-22 -275q-135 -112 -333 -112q-204 0 -332.5 149.5t-128.5 390.5zM211 631h555 q-10 179 -78.5 276t-185.5 97q-258 0 -291 -373zM257 1169l246 285h10l246 -285l-8 -8l-239 220h-8l-239 -220z" />
<glyph unicode="&#xec;" horiz-adv-x="425" d="M61 0v27q103 0 103 125v737q0 125 -103 125v26h238v-888q0 -125 102 -125v-27h-340zM74 1413l41 41l245 -285l-8 -8z" />
<glyph unicode="&#xed;" horiz-adv-x="425" d="M61 0v27q103 0 103 125v737q0 125 -103 125v26h238v-888q0 -125 102 -125v-27h-340zM61 1169l246 285l41 -41l-278 -252z" />
<glyph unicode="&#xee;" horiz-adv-x="442" d="M-38 1169l246 285h10l246 -285l-8 -8l-239 220h-8l-239 -220zM61 0v27q103 0 103 125v737q0 125 -103 125v26h238v-888q0 -125 102 -125v-27h-340z" />
<glyph unicode="&#xef;" horiz-adv-x="442" d="M-25 1308l93 92l92 -92l-92 -93zM61 0v27q103 0 103 125v737q0 125 -103 125v26h238v-888q0 -125 102 -125v-27h-340zM263 1308l92 92l92 -92l-92 -93z" />
<glyph unicode="&#xf0;" horiz-adv-x="1017" d="M76 440q0 199 123 333t306 134q123 0 229 -72q-32 114 -86 227l-154 -38l-20 41l159 28q-46 92 -102.5 176.5t-90.5 123.5l-33 39l16 17q18 -14 47.5 -41.5t107.5 -116t140 -183.5l222 39l5 -10l-212 -53q201 -321 201 -643q0 -88 -32 -172.5t-87 -150.5t-136.5 -106.5 t-173.5 -40.5q-183 0 -306 134.5t-123 334.5zM215 466q-7 -82 3 -155.5t38.5 -135t82.5 -100.5t129 -46q60 -5 112 15t88 57.5t63.5 89.5t42.5 108t21 116q8 82 -2.5 155t-38.5 134.5t-82.5 100t-129.5 45.5t-135 -22t-99 -84t-62.5 -125.5t-30.5 -152.5z" />
<glyph unicode="&#xf1;" horiz-adv-x="1058" d="M41 0v27q102 0 102 125v737q0 125 -102 125v26h238v-163q52 89 130.5 136.5t174.5 47.5q147 0 244.5 -99.5t97.5 -250.5v-559q0 -125 102 -125v-27h-340v27q103 0 103 125v559q0 137 -61.5 215t-168.5 78q-116 0 -199 -95t-83 -227v-530q0 -125 102 -125v-27h-340z M260 1273q6 4 32 27t47.5 39t56 27.5t66.5 4.5q22 -5 108.5 -44.5t102.5 -43.5q48 -13 94 4.5t104 57.5l4 -7q-6 -4 -32 -27t-47.5 -39t-56 -27.5t-66.5 -4.5q-22 5 -108.5 44.5t-102.5 43.5q-48 13 -94 -4.5t-104 -57.5z" />
<glyph unicode="&#xf2;" horiz-adv-x="1073" d="M61 522q0 78 18 154t57 146t93.5 123t134 84.5t173.5 31.5q93 0 172 -31.5t134 -84.5t93.5 -122.5t57 -146t18.5 -154.5q0 -80 -18.5 -157t-57 -147t-93.5 -123t-134 -84t-172 -31q-109 0 -201 47.5t-151 125.5t-91.5 173.5t-32.5 195.5zM201.5 602.5 q-3.5 -56.5 3.5 -108.5q6 -68 22.5 -132.5t47 -127t71.5 -107.5t101 -69.5t132 -18.5q65 6 116 31.5t82.5 64t54 88t30 104t10.5 112t-4 111.5q-6 69 -20 131.5t-43 125.5t-69.5 107t-102.5 69t-139 18q-65 -6 -116.5 -31.5t-82.5 -64t-53.5 -88t-29.5 -104t-10.5 -111z M393 1413l41 41l246 -285l-8 -8z" />
<glyph unicode="&#xf3;" horiz-adv-x="1073" d="M61 522q0 78 18 154t57 146t93.5 123t134 84.5t173.5 31.5q93 0 172 -31.5t134 -84.5t93.5 -122.5t57 -146t18.5 -154.5q0 -80 -18.5 -157t-57 -147t-93.5 -123t-134 -84t-172 -31q-109 0 -201 47.5t-151 125.5t-91.5 173.5t-32.5 195.5zM201.5 602.5 q-3.5 -56.5 3.5 -108.5q6 -68 22.5 -132.5t47 -127t71.5 -107.5t101 -69.5t132 -18.5q65 6 116 31.5t82.5 64t54 88t30 104t10.5 112t-4 111.5q-6 69 -20 131.5t-43 125.5t-69.5 107t-102.5 69t-139 18q-65 -6 -116.5 -31.5t-82.5 -64t-53.5 -88t-29.5 -104t-10.5 -111z M393 1169l246 285l41 -41l-279 -252z" />
<glyph unicode="&#xf4;" horiz-adv-x="1073" d="M61 522q0 78 18 154t57 146t93.5 123t134 84.5t173.5 31.5q93 0 172 -31.5t134 -84.5t93.5 -122.5t57 -146t18.5 -154.5q0 -80 -18.5 -157t-57 -147t-93.5 -123t-134 -84t-172 -31q-109 0 -201 47.5t-151 125.5t-91.5 173.5t-32.5 195.5zM201.5 602.5 q-3.5 -56.5 3.5 -108.5q6 -68 22.5 -132.5t47 -127t71.5 -107.5t101 -69.5t132 -18.5q65 6 116 31.5t82.5 64t54 88t30 104t10.5 112t-4 111.5q-6 69 -20 131.5t-43 125.5t-69.5 107t-102.5 69t-139 18q-65 -6 -116.5 -31.5t-82.5 -64t-53.5 -88t-29.5 -104t-10.5 -111z M286 1169l245 285h11l245 -285l-8 -8l-238 220h-9l-238 -220z" />
<glyph unicode="&#xf5;" horiz-adv-x="1073" d="M61 522q0 78 18 154t57 146t93.5 123t134 84.5t173.5 31.5q93 0 172 -31.5t134 -84.5t93.5 -122.5t57 -146t18.5 -154.5q0 -80 -18.5 -157t-57 -147t-93.5 -123t-134 -84t-172 -31q-109 0 -201 47.5t-151 125.5t-91.5 173.5t-32.5 195.5zM201.5 602.5 q-3.5 -56.5 3.5 -108.5q6 -68 22.5 -132.5t47 -127t71.5 -107.5t101 -69.5t132 -18.5q65 6 116 31.5t82.5 64t54 88t30 104t10.5 112t-4 111.5q-6 69 -20 131.5t-43 125.5t-69.5 107t-102.5 69t-139 18q-65 -6 -116.5 -31.5t-82.5 -64t-53.5 -88t-29.5 -104t-10.5 -111z M229 1273l4 -7q58 40 104 57.5t94 4.5q16 -4 102.5 -43.5t108.5 -44.5q32 -7 66.5 4.5t56 27.5t47.5 39t32 27l-4 7q-58 -40 -104 -57.5t-94 -4.5q-16 4 -102.5 43.5t-108.5 44.5q-32 7 -66.5 -4.5t-56 -27.5t-47.5 -39t-32 -27z" />
<glyph unicode="&#xf6;" horiz-adv-x="1073" d="M61 522q0 78 18 154t57 146t93.5 123t134 84.5t173.5 31.5q93 0 172 -31.5t134 -84.5t93.5 -122.5t57 -146t18.5 -154.5q0 -80 -18.5 -157t-57 -147t-93.5 -123t-134 -84t-172 -31q-109 0 -201 47.5t-151 125.5t-91.5 173.5t-32.5 195.5zM201.5 602.5 q-3.5 -56.5 3.5 -108.5q6 -68 22.5 -132.5t47 -127t71.5 -107.5t101 -69.5t132 -18.5q65 6 116 31.5t82.5 64t54 88t30 104t10.5 112t-4 111.5q-6 69 -20 131.5t-43 125.5t-69.5 107t-102.5 69t-139 18q-65 -6 -116.5 -31.5t-82.5 -64t-53.5 -88t-29.5 -104t-10.5 -111z M301 1308l92 92l92 -92l-92 -93zM588 1308l92 92l92 -92l-92 -93z" />
<glyph unicode="&#xf7;" d="M82 712v10l225 15l225 -15v-10l-225 -16zM246 579l46 46l46 -46l-46 -47zM246 865l46 46l46 -46l-46 -46z" />
<glyph unicode="&#xf8;" horiz-adv-x="1073" d="M61 522q0 78 18 154t57 146t93.5 123t134 84.5t173.5 31.5q91 0 173 -32l66 176l35 -15l-70 -175q130 -64 200.5 -201.5t70.5 -291.5q0 -80 -18.5 -157t-57 -147t-93.5 -123t-134 -84t-172 -31q-105 0 -192 42l-74 -186l-9 4l71 189q-127 67 -199.5 204t-72.5 289z M201.5 602.5q-3.5 -56.5 3.5 -108.5q11 -114 50.5 -217.5t108.5 -166.5l319 848q-80 53 -189 43q-65 -6 -116.5 -31.5t-82.5 -64t-53.5 -88t-29.5 -104t-10.5 -111zM376 99q84 -70 203 -60q65 6 116 31.5t82.5 64t54 88t30 104t10.5 112t-4 111.5q-24 273 -158 388z" />
<glyph unicode="&#xf9;" horiz-adv-x="1058" d="M31 1014v26h237v-710q0 -137 61.5 -215t168.5 -78q116 0 199 94.5t83 226.5v531q0 125 -102 125v26h237v-888q0 -125 103 -125v-27h-238v163q-52 -89 -130.5 -136t-174.5 -47q-147 0 -244.5 99.5t-97.5 250.5v559q0 125 -102 125zM381 1413l41 41l246 -285l-9 -8z" />
<glyph unicode="&#xfa;" horiz-adv-x="1058" d="M31 1011v27h237v-711q0 -136 61.5 -214t168.5 -78q116 0 199 95t83 226v531q0 35 -9 60.5t-20.5 37.5t-28.5 18.5t-25 7t-19 0.5v27h237v-889q0 -125 103 -125v-26h-238v163q-52 -89 -130.5 -136.5t-174.5 -47.5q-147 0 -244.5 99.5t-97.5 250.5v560q0 35 -9 60.5 t-20.5 37.5t-28.5 18.5t-25 7t-19 0.5zM381 1167l246 285l41 -41l-279 -252z" />
<glyph unicode="&#xfb;" horiz-adv-x="1058" d="M31 1014v26h237v-710q0 -137 61.5 -215t168.5 -78q116 0 199 94.5t83 226.5v531q0 125 -102 125v26h237v-888q0 -125 103 -125v-27h-238v163q-52 -89 -130.5 -136t-174.5 -47q-147 0 -244.5 99.5t-97.5 250.5v559q0 125 -102 125zM273 1169l246 285h10l246 -285l-8 -8 l-239 220h-8l-238 -220z" />
<glyph unicode="&#xfc;" horiz-adv-x="1058" d="M31 1014v26h237v-710q0 -137 61.5 -215t168.5 -78q116 0 199 94.5t83 226.5v531q0 125 -102 125v26h237v-888q0 -125 103 -125v-27h-238v163q-52 -89 -130.5 -136t-174.5 -47q-147 0 -244.5 99.5t-97.5 250.5v559q0 125 -102 125zM288 1308l92 92l93 -92l-93 -93z M576 1308l92 92l92 -92l-92 -93z" />
<glyph unicode="&#xfd;" horiz-adv-x="1013" d="M0 -406l87 104q45 -36 87 -46t75 2.5t62.5 40t52.5 65.5t42.5 80.5t34.5 83t26 74.5q2 7 3 10l-313 883q-44 123 -151 123v26h243l289 -854l258 722q20 55 6 80.5t-63 25.5v26h274v-26q-106 0 -146 -111l-319 -897q-24 -66 -41.5 -110t-46.5 -101t-57 -92t-70 -69.5 t-88.5 -48t-109 -13t-135.5 21.5zM363 1169l246 285l41 -41l-279 -252z" />
<glyph unicode="&#xfe;" horiz-adv-x="1021" d="M21 -403q12 0 19 0.5t25 7t28.5 18t20 37t9.5 61.5v1577q0 125 -102 125v27h237v-573q52 89 130.5 136.5t174.5 47.5q182 0 290 -147t108 -394q0 -258 -104 -399t-294 -141q-97 0 -177 48t-128 135v-593h-237v27zM258 360q0 -132 83.5 -227.5t199.5 -95.5 q143 0 213.5 119.5t70.5 363.5q0 217 -78 350t-206 133q-116 0 -199.5 -95t-83.5 -226v-322z" />
<glyph unicode="&#xff;" horiz-adv-x="1013" d="M0 -406l87 104q45 -36 87 -46t75 2.5t62.5 40t52.5 65.5t42.5 80.5t34.5 83t26 74.5q2 7 3 10l-313 883q-44 123 -151 123v26h243l289 -854l258 722q20 55 6 80.5t-63 25.5v26h274v-26q-106 0 -146 -111l-319 -897q-24 -66 -41.5 -110t-46.5 -101t-57 -92t-70 -69.5 t-88.5 -48t-109 -13t-135.5 21.5zM271 1308l92 92l92 -92l-92 -93zM558 1308l92 92l92 -92l-92 -93z" />
<glyph unicode="&#x152;" horiz-adv-x="1832" d="M61 725q0 154 46 290t129 237t208.5 160t276.5 59q83 0 169 -21h829l44 -242h-27q-5 27 -9.5 46t-17 47.5t-29 46.5t-45.5 31.5t-66 13.5h-504v-416h442q45 0 72.5 8t38 25t12.5 28.5t2 33.5v3.5v3.5h27v-262h-27q-1 45 -8 59q-22 44 -117 44h-442v-863h442q48 0 86.5 21 t64 60t43.5 82t29 99.5t16.5 98t9.5 92.5h26l-42 -510h-851q-82 -20 -168 -20q-200 0 -352 101t-230 269t-78 375zM201 681q11 -133 55.5 -252t116 -211.5t177.5 -142t231 -38.5q40 4 58 8q87 20 87 122v1117q0 84 -101 115q-78 21 -165 14q-124 -11 -220 -78t-150.5 -170 t-77.5 -227.5t-11 -256.5z" />
<glyph unicode="&#x153;" horiz-adv-x="1753" d="M61 520q0 79 17.5 154.5t55 145.5t91 123t132 84.5t171.5 31.5q129 0 230 -61t163 -175q54 115 148.5 175.5t220.5 60.5q93 0 170.5 -41t128 -109t77.5 -155.5t26 -182.5h-696q-1 -18 -1 -53q0 -100 16.5 -183.5t52.5 -152.5t99 -108t148 -39q146 0 229.5 84.5 t98.5 245.5h27l-22 -275q-135 -112 -333 -112q-128 0 -227.5 61.5t-157.5 175.5q-59 -116 -160.5 -177t-237.5 -61q-109 0 -199.5 47.5t-148 126t-88.5 174t-31 195.5zM193.5 600.5q-3.5 -56.5 3.5 -108.5q6 -68 22.5 -132.5t47 -127t71.5 -107.5t101 -69.5t132 -18.5 q77 7 134.5 41t88.5 85.5t50 116t19.5 131.5t-3.5 133q-6 69 -20 131.5t-43 126.5t-69.5 109t-102.5 70t-139 18q-65 -6 -116.5 -31.5t-82.5 -64t-53.5 -88t-29.5 -104t-10.5 -111zM1000 629h563q-4 76 -21.5 140.5t-49 117.5t-83.5 83.5t-119 30.5q-257 0 -290 -372z" />
<glyph unicode="&#x178;" horiz-adv-x="1273" d="M0 1423v27h244l419 -718l358 581q36 57 30.5 83.5t-53.5 26.5v27h276v-27q-108 0 -188 -129l-388 -627v-515q0 -125 103 -125v-27h-344v27q102 0 102 125v515l-384 650q-73 106 -175 106zM393 1659l92 92l92 -92l-92 -92zM680 1659l92 92l92 -92l-92 -92z" />
<glyph unicode="&#x2c6;" horiz-adv-x="665" d="M82 1169l246 285h10l246 -285l-9 -8l-238 220h-8l-239 -220z" />
<glyph unicode="&#x2dc;" horiz-adv-x="780" d="M82 1273l4 -7q58 40 104 57.5t94 4.5q16 -4 102.5 -43.5t108.5 -44.5q32 -7 66.5 4.5t56 27.5t47.5 39t32 27l-4 7q-58 -40 -104 -57.5t-94 -4.5q-16 4 -102.5 43.5t-108.5 44.5q-32 7 -66.5 -4.5t-56 -27.5t-47.5 -39t-32 -27z" />
<glyph unicode="&#x2000;" horiz-adv-x="902" />
<glyph unicode="&#x2001;" horiz-adv-x="1805" />
<glyph unicode="&#x2002;" horiz-adv-x="902" />
<glyph unicode="&#x2003;" horiz-adv-x="1805" />
<glyph unicode="&#x2004;" horiz-adv-x="601" />
<glyph unicode="&#x2005;" horiz-adv-x="451" />
<glyph unicode="&#x2006;" horiz-adv-x="300" />
<glyph unicode="&#x2007;" horiz-adv-x="300" />
<glyph unicode="&#x2008;" horiz-adv-x="225" />
<glyph unicode="&#x2009;" horiz-adv-x="361" />
<glyph unicode="&#x200a;" horiz-adv-x="100" />
<glyph unicode="&#x2010;" d="M82 712v10l225 15l225 -15v-10l-225 -16z" />
<glyph unicode="&#x2011;" d="M82 712v10l225 15l225 -15v-10l-225 -16z" />
<glyph unicode="&#x2012;" d="M82 712v10l225 15l225 -15v-10l-225 -16z" />
<glyph unicode="&#x2013;" horiz-adv-x="757" d="M82 712v10l297 15l297 -15v-10l-297 -16z" />
<glyph unicode="&#x2014;" horiz-adv-x="1167" d="M82 712v10l502 15l501 -15v-10l-501 -16z" />
<glyph unicode="&#x2019;" horiz-adv-x="225" d="M82 1064v390h82l-62 -390h-20z" />
<glyph unicode="&#x201a;" horiz-adv-x="327" d="M72 61l92 88l92 -88l-81 -178h-11v89z" />
<glyph unicode="&#x201c;" horiz-adv-x="573" d="M82 1372l82 82l82 -82l-82 -82v-83h-10zM328 1372l82 82l82 -82l-82 -82v-83h-11z" />
<glyph unicode="&#x201d;" horiz-adv-x="573" d="M82 1372l82 82l82 -82l-72 -164h-10v82zM328 1372l82 82l82 -82l-72 -164h-10v82z" />
<glyph unicode="&#x201e;" horiz-adv-x="573" d="M72 61l92 88l92 -88l-81 -178h-11v89zM317 61l93 88l92 -88l-81 -178h-11v89z" />
<glyph unicode="&#x2022;" horiz-adv-x="368" d="M82 718q0 43 29.5 73t72.5 30t73 -30t30 -73t-30 -72.5t-73 -29.5t-72.5 29.5t-29.5 72.5z" />
<glyph unicode="&#x2026;" horiz-adv-x="819" d="M82 61l82 82l82 -82l-82 -81zM328 61l82 82l82 -82l-82 -81zM573 61l82 82l82 -82l-82 -81z" />
<glyph unicode="&#x202f;" horiz-adv-x="361" />
<glyph unicode="&#x2039;" horiz-adv-x="686" d="M82 617v10l522 404v-11l-481 -394v-8l481 -390v-11z" />
<glyph unicode="&#x203a;" horiz-adv-x="686" d="M82 217v11l481 390v8l-481 394v11l522 -404v-10z" />
<glyph unicode="&#x205f;" horiz-adv-x="451" />
<glyph unicode="&#x20ac;" horiz-adv-x="1435" d="M74 594v57h125q-2 24 -2 74t2 75l-84 -2v57h90q38 280 216.5 447.5t438.5 167.5q92 0 174.5 -39.5t134 -91.5t93.5 -115t57.5 -98t21.5 -53l-8 -10h-15q-71 168 -190 259t-268 91q-109 0 -200 -45t-152.5 -123t-100 -177t-53.5 -213h801v-26l-806 -24q-3 -39 -3 -80 q0 -37 3 -74h765v-26l-761 -23q14 -116 52.5 -216t100 -179t153 -124.5t201.5 -45.5q204 0 325 119.5t151 353.5h27q-61 -418 -346 -507q-72 -23 -157 -23q-261 0 -439 168.5t-216 449.5z" />
<glyph unicode="&#x2122;" horiz-adv-x="546" d="M0 1391l11 59h210l10 -59h-17q-1 2 -2.5 8.5t-2.5 9.5t-4 8t-7.5 7t-11.5 2h-39q-7 0 -9.5 -3t-2.5 -13v-216q0 -17 20 -17v-18h-79v18q20 0 20 17v216q0 10 -2.5 13t-9.5 3h-39q-8 0 -13.5 -4.5t-7 -7.5t-4 -12.5t-2.5 -10.5h-18zM254 1159v18q19 0 19 17v221 q0 17 -19 17v18h50l97 -232l95 232h51l-1 -18q-19 0 -19 -17v-221q0 -17 20 -17v-18h-79v18q20 0 20 17v171l-85 -206h-20l-85 206v-171q0 -17 20 -17v-18h-64z" />
<glyph unicode="&#x25fc;" horiz-adv-x="1044" d="M0 0v1044h1044v-1044h-1044z" />
<glyph unicode="&#xfb03;" horiz-adv-x="1368" d="M41 983v57h165q2 209 83 318.5t235 109.5q64 0 124 -23t102 -64q80 87 217 87q65 0 126.5 -24.5t102.5 -66.5l-70 -112q-22 69 -69.5 107.5t-110.5 38.5q-35 0 -62.5 -13t-45.5 -31.5t-30 -52t-18 -60t-9 -71.5t-3 -70.5v-72.5h447v-888q0 -125 102 -125v-27h-340v27 q103 0 103 125v831h-310v-831q0 -125 103 -125v-27h-340v27q102 0 102 125v831h-307v-831q0 -125 102 -125v-27h-340v27q103 0 103 125v831h-162zM336 1040h313q2 135 34 227q-22 69 -69.5 106.5t-109.5 37.5q-35 0 -62.5 -13t-45.5 -31.5t-30 -52t-18 -60t-9 -71.5 t-3 -70.5v-72.5z" />
</font>
</defs>
</svg>
